<svg width="512px" height="512px" viewBox="0 0 128 128" version="1.1" xmlns="http://www.w3.org/2000/svg">
	<desc>sky wing simple icon</desc>
	<defs>
		<linearGradient id="bg" x1="0" y1="1" x2="0" y2="0">
			<stop offset="20%" stop-color="#214"/><stop offset="100%" stop-color="#415"/>
		</linearGradient>
		<filter id="sh">
			<feDropShadow dx="0" dy="0" stdDeviation="2" flood-color="#f00"/>
		</filter>
	</defs>
	<path d="M0,0h160v160h-160" fill="url(#bg)"/>
	<path d="M64,64m22.4,-20.8a25.6,25.6,-24,1,1,-44.8,0
			M64,64m44,-27.2a44.8,44.8,-6.4,1,1,-88,0l16,7.2a30.4,30.4,-19.2,1,0,56,0l16,-7.2z
			M64,64m25.6,0q-25.6,0,-25.6,-28.8q0,28.8,-25.6,28.8q25.6,0,25.6,28.8q0,-28.8,25.6,-28.8z"
		style="fill:#0000;stroke:#fea;stroke-width:2;filter:url(#sh);"/>
</svg>
