<svg xmlns="http://www.w3.org/2000/svg" width="1024" height="768" viewBox="0 0 1024 768">
	<desc>atlas0</desc>
	<style>
		g>path,g>text{fill:none;stroke:#fea;stroke-width:3;filter:url(#sh);stroke-linecap:round;stroke-linejoin:round;font-family:sans-serif;text-anchor:middle;dominant-baseline:central;}
	</style>
	<defs>
		<filter id="sh" x="-20%" width="140%" y="-20%" height="140%"><feDropShadow dx="0" dy="0" stdDeviation="2" flood-color="#f00"/></filter>
	</defs>
	<g><!--keys-->
		<path d="M0,0m64,9l55,55l-55,55l-55,-55zm39,55a39,39,0,1,0,0,.0001z
			M128,0m64,15l49,49l-49,49l-49,-49z
			M256,0m64,25a39,39,0,1,0,.0001,0z"/>
	</g>
	<g transform="translate(0,128)"><!--ui-->
		<path d="M0,0m33,64l24,28l38,-56
			M128,0m39,39l50,50m0,-50l-50,50
			M256,0m21,64h86m-43,-43v86
			M384,0m21,64h86
			M512,0m80,24l-40,40l40,40"/>
	</g>
	<g transform="translate(0,256)" style="font-size:80px;"><!--char-->
		<path d="M0,0m55.7,26.4h14.6v27.9l27.2,-9.6l5,14l-27.3,8.8l16.9,23.5l-12.3,8.9l-16.4,-24.4l-16.5,24.4l-12.8,-8.9l17.2,-23.5l-27.5,-8.9l5,-13.8l27,9.7z"/>
		<text x="192" y="64">♫</text>
		<g style="opacity:.6;" transform="translate(256,0)">
			<g style="font-size:60px;"><text x="48" y="80">♭</text><text x="80" y="48">♯</text></g>
			<g transform="translate(128,0)"><text x="44" y="64" >♩</text><text x="84" y="64">=</text></g>
		</g>
		<text x="576" y="64">?</text>
	</g>
	<g transform="translate(0,384)"><!--audio-->
		<path d="M0,0m36,32v64l56,-32z
			M128,0m16,32v64l48,-32zm48,0v64h16v-64zm32,0v64h16v-64z
			M256,0m32,32v64h64v-64z
			M384,0m16,32v64h8v-64zm16,0v64h8v-64zm16,0v64l64,-32z"/>
		<g transform="translate(512,0)"><path d="m64,26a38,38,0,1,0,.0001,0z"/><path d="m64,45a19,19,0,1,0,.0001,0z" style="fill:#fea"/></g>
	</g>
	<g transform="translate(0,512)"><!--edit-->
		<path d="M0,0m64,64m18,9a18,12,26.6,1,0,0.01,0l-66,-33a48,24,0,0,1,0,48l66,-33a18,12,-26.6,1,1,0.01,0
			M128,0m37,33h32l16,16v52l-48,0z"/><path d="M128,0m43,27h48v68" stroke-dasharray="7"/>
		<path d="M256,0m38,34h32l16,16v52l-48,0z m4,-8h15v-6h24v6h15v72"/>
		<path d="M384,0m80,64v-40h-56v56h40" stroke-dasharray="7"/><path d="M384,0m68,64v36l8,-8l7,16l6,-3l-7,-16h12z"/>
		<path d="M512,0m41.37,41.37m0,45.26a32,32,0,1,0,0,-45.26l-4,4m0,-16v16h16
			M640,0m44,32h64v64h-64l-24,-32zm16,16l32,32m0,-32l-32,32
			M768,0m21,21h86v86h-86zm43,15v56m-28,-28h56"/>
	</g>
	<g transform="translate(0,640)"><!--file-->
		<path d="M0,0m36,24h36l20,20v60h-56z
			M128,0m36,24h36l20,20v60h-56z m12,40h32m-16,-16v32
			M256,0m36,24h36l20,20v60h-56z m12,24l32,32m-32,0l32,-32
			M384,0m42,18h36l20,20v60h-56z m-12,12h36l20,20v60h-56z
			M512,0m36,80v-56h36l20,20v36m0,12v12h-56v-12 M512,0m35,86h58 M512,0m74,50v28m-3,0h6m0,-28h-6
			M640,0m56,24h-20v80h56v-60l-20,-20h-8v52l-16,-18m32,0l-16,18
			M768,0m36,24h36l20,20v60h-56v-28m0,-24v-28 m-4,40h48l-18,-16m0,32l18,-16
			M896,0m36,24h36l20,20v8m0,24v28h-56v-80 m12,40h48l-18,-16m0,32l18,-16"/>
	</g>
	<rect x="896" y="0" width="128" height="128" fill="#1D9BF0"/><!--twitter-->
	<path fill="#fff" d="M896,0m49.152,96.512c30.176,0,46.688,-25.024,46.688,-46.688c0,-0.704,0,-1.408,-0.032,-2.112c3.2,-2.304,5.984,-5.216,8.192,-8.512c-2.944,1.312,-6.112,2.176,-9.44,2.592c3.392,-2.016,5.984,-5.248,7.232,-9.088c-3.168,1.888,-6.688,3.232,-10.432,3.968c-3.008,-3.2,-7.264,-5.184,-11.968,-5.184c-9.056,0,-16.416,7.36,-16.416,16.416c0,1.28,0.16,2.528,0.416,3.744c-13.632,-0.672,-25.728,-7.232,-33.824,-17.152c-1.408,2.432,-2.208,5.248,-2.208,8.256c0,5.696,2.912,10.72,7.296,13.664c-2.688,-0.096,-5.216,-0.832,-7.424,-2.048c0,0.064,0,0.128,0,0.224c0,7.936,5.664,14.592,13.152,16.096c-1.376,0.384,-2.816,0.576,-4.32,0.576c-1.056,0,-2.08,-0.096,-3.072,-0.288c2.08,6.528,8.16,11.264,15.328,11.392c-5.632,4.416,-12.704,7.04,-20.384,7.04c-1.312,0,-2.624,-0.064,-3.904,-0.224c7.232,4.608,15.872,7.328,25.12,7.328"/>
	<rect x="768" y="0" width="128" height="128" fill="#5865F2"/><!--discord-->
	<path fill="#fff" d="M768,0m97.2681,33.4393c-6.1183,-2.8070,-12.6801,-4.8757,-19.5407,-6.0602c-0.1244,-0.0230,-0.2488,0.0338,-0.3137,0.1474c-0.8437,1.5022,-1.7794,3.4601,-2.4338,4.9988c-7.3785,-1.1047,-14.7191,-1.1047,-21.9461,0.0000c-0.6558,-1.5739,-1.6239,-3.4979,-2.4717,-4.9988c-0.0635,-0.1095,-0.1893,-0.1663,-0.3137,-0.1474c-6.8566,1.1804,-13.4184,3.2491,-19.5407,6.0602c-0.0527,0.0230,-0.0987,0.0608,-0.1285,0.1109c-12.4462,18.5929,-15.8549,36.7301,-14.1823,54.6416c0.0081,0.0865,0.0568,0.1704,0.1244,0.2245c8.2114,6.0304,16.1659,9.6906,23.9716,12.1176c0.1257,0.0379,0.2569,-0.0081,0.3367,-0.1109c1.8470,-2.5217,3.4925,-5.1799,4.9041,-7.9761c0.0838,-0.1650,0.0041,-0.3583,-0.1663,-0.4232c-2.6109,-0.9911,-5.0975,-2.1985,-7.4880,-3.5696c-0.1893,-0.1109,-0.2042,-0.3813,-0.0311,-0.5111c0.5030,-0.3759,1.0073,-0.7694,1.4873,-1.1655c0.0865,-0.0717,0.2082,-0.0865,0.3110,-0.0419c15.7102,7.1730,32.7198,7.1730,48.2447,0.0000c0.1028,-0.0487,0.2245,-0.0338,0.3150,0.0392c0.4800,0.3962,0.9830,0.7923,1.4900,1.1682c0.1744,0.1298,0.1636,0.4002,-0.0257,0.5111c-2.3919,1.3981,-4.8784,2.5785,-7.4921,3.5655c-0.1704,0.0649,-0.2461,0.2623,-0.1636,0.4273c1.4427,2.7921,3.0882,5.4504,4.9001,7.9721c0.0757,0.1068,0.2123,0.1528,0.3380,0.1149c7.8436,-2.4270,15.7981,-6.0872,24.0081,-12.1176c0.0730,-0.0541,0.1176,-0.1339,0.1257,-0.2217c2.0011,-20.7076,-3.3532,-38.6948,-14.1945,-54.6402c-0.0257,-0.0541,-0.0717,-0.0919,-0.1244,-0.1149zm-49.1885,43.8450c-4.7297,0.0014,-8.6265,-4.3416,-8.6265,-9.6744c0.0000,-5.3341,3.8211,-9.6757,8.6265,-9.6757c4.8433,0.0000,8.7035,4.3795,8.6278,9.6757c0.0000,5.3327,-3.8224,9.6757,-8.6278,9.6757zm31.8990,0.0000c-4.7297,0.0000,-8.6278,-4.3430,-8.6278,-9.6757c0.0000,-5.3327,3.8224,-9.6757,8.6278,-9.6757c4.8433,0.0000,8.7035,4.3808,8.6278,9.6757c0.0000,5.3327,-3.7846,9.6757,-8.6278,9.6757z"/>
</svg>
