<svg xmlns="http://www.w3.org/2000/svg" width="2048" height="1024" class="img-fluid" style="transform:matrix(.3,0,0,.3,16.3285,29.1656);transform-origin:50% 50%0;cursor:move;transition:none 0s ease 0s" viewBox="0 0 20480 10240">
<path fill="none" d="M0 5120V0h20480v10240H0V5120z" style="transform:none"/>
<g fill="#f004">
	<path d="M909 10149c-82-19-198-83-272-149a617 617 0 0 1-125-196c-17-60-15-214 4-269 26-77 81-160 163-248 74-78 302-282 369-330 119-86 249-197 282-240 21-29 64-101 96-162 31-60 72-132 90-160 63-97 89-197 64-246-8-15-21-19-59-19-96 0-170-43-171-101 0-38 20-57 70-66 44-8 45-10 48-48 4-62 20-85 57-85 41 0 74 26 120 95 20 30 41 56 48 57l67 2c49 1 61 6 101 39l46 37h96c86 0 98 2 116 22 39 41 37 59-8 98-39 33-41 39-31 64 12 33 13 76 1 95-5 7-26 15-48 18-34 4-47-1-101-41-34-25-69-46-77-46-33 0-98 75-136 158-22 46-39 85-39 88l-43 97c-103 218-111 250-127 542-30 550-83 754-233 892-54 50-81 64-171 92-71 22-135 25-197 10zm148-489c18-11 35-31 39-45 7-28-2-73-18-92-26-31-120 5-132 51-5 21 5 73 19 96 10 16 57 12 92-10zM10694 9986c-20-15-25-137-6-144 21-7 13-30-20-65a770 770 0 0 1-119-140c-14-31-32-62-48-81-9-10-13-48-13-113-1-118 18-173 84-255 73-90 85-100 159-142 18-10 39-25 47-32 7-8 19-15 25-15 7-1 17-2 22-4 6-1 18-3 28-3 10-1 16-6 13-11-7-11 20-22 38-15 8 3 17 1 21-5 8-15 88-14 120 1 35 16 32 48-11 100-50 59-64 96-64 172 0 47 6 74 20 99l21 35 58-13c85-20 98-14 111 54l14 73c2 9-1 19-8 22-6 2 31 5 82 5 55 1 92-3 92-9 0-5 8-10 19-10 17 0 78-41 109-72l63-76c35-44 59-65 80-69 16-3 29-10 29-15 0-6 10-8 23-4 13 3 32-1 43-9 12-7 35-13 53-13 18 1 37-5 41-12 6-10 33-14 95-13 83 0 87 1 119 32 21 21 32 40 31 55-3 20-79 106-95 106-6 0-85 64-140 113-24 21-85 96-85 104-2 34-79 140-148 205a639 639 0 0 1-225 123c-18 3-30 10-28 13 5 8-30 11-174 14-93 2-114-1-183-26-43-15-97-29-121-30-39-2-42-1-38 20 3 19-4 24-57 41-47 16-65 18-77 9zM3925 9934c-13-12-27-35-30-51l-10-48c-6-30 14-105 36-137 12-16 18-35 15-43-9-25-66-53-167-85-70-21-110-41-143-68-25-21-67-43-93-50-146-40-275-131-303-216-21-65-9-155 28-213 18-27 32-53 32-57 0-37-245-50-283-15-57 52-146 8-178-88-7-24-10-72-7-137 13-243 157-516 331-628 95-61 178-34 204 65 9 31 29 61 70 103 55 56 126 101 348 220 39 21 87 48 107 61 21 13 40 23 43 23s38 20 78 43l147 87c250 142 484 287 531 329 32 29 69 75 88 110 18 34 40 65 50 71 11 5 47 7 83 3 61-5 67-4 97 23 29 26 31 31 25 73-8 56-46 134-75 154-25 18-72 14-105-8-38-25-52-18-85 39a411 411 0 0 1-390 199c-68-7-83 6-69 58 6 18 10 47 10 64 0 39-36 99-55 91-8-3-17-1-20 4-7 12-55-11-74-34-21-25-44-19-82 20-61 63-113 76-154 38zm434-479c49-25 56-86 16-133-31-37-6-28-477-177-441-140-423-137-452-60-36 92-20 118 104 170 51 22 79 27 133 26 56-1 83 5 144 30 41 18 124 44 183 59 79 20 120 36 148 58 50 40 151 53 201 27zM8760 9850c-44-9-190-77-190-88 0-4-15-16-32-27-34-20-106-85-94-85 8 0-44-83-58-92-6-4-12-18-12-30-1-13-11-60-23-105-21-79-21-83-5-140 29-101 74-170 74-114 0 11 5 23 10 26 13 8 12-2-3-48-19-52-33-66-49-44-12 15-18 15-63 3-83-22-186-78-229-125a284 284 0 0 1-61-81c-7-8-18-32-25-52-6-21-16-38-21-38-6 0-8-4-5-9s-2-33-11-62c-23-76-23-238-1-310 17-53 56-109 77-109 6 0 41 31 79 69s84 76 103 84l34 14-37 16c-21 9-38 23-38 31 0 9 2 16 5 16 23 0 173-47 183-57 7-7 19-13 26-13s21-9 31-20 25-20 33-20c15 0 124-63 157-91 11-9 36-24 55-33 63-28 196-102 232-129 19-15 40-27 47-27 6 0 56-23 111-51 115-59 96-59 304 7 77 24 146 44 154 44 13 0 49 14 169 66 17 8 42 14 55 14 22-1 22-2-6-17-27-14-28-16-11-25 25-15 115-38 146-38 18 0 37 11 58 35 50 57 49 74-6 155-43 63-51 70-77 66l-28-5 7 46c3 25 2 57-3 72-6 14-18 62-27 106l-33 145c-8 36-15 74-14 85 0 10-3 24-8 30-5 5-14 32-21 59-13 50-61 116-85 116-8 0-19 9-26 20s-18 20-25 20c-17 0-156 85-178 110-10 11-24 20-30 20-7 0-24 9-38 20-38 30-303 170-322 170-6 0-21 9-33 20s-33 25-47 30c-16 6-23 14-19 22 5 7 2 9-9 5-10-4-24 5-41 28-32 41-34 65-6 58 18-5 20 0 22 38 2 46 4 83 7 109 1 12 3 12 10 2 6-9 8-5 8 15 0 15 4 37 7 49 16 47-51 66-154 44zm409-766c19-24 29-74 16-74-12 0-64 67-65 83 0 25 26 21 49-9zm-152-26 96-89c77-74 80-77 58-88-20-11-31-5-116 69-95 82-119 120-75 120 12 0 28-6 37-12zm-85-98c29-22 56-40 61-40 4 0 7-7 7-15s19-23 43-34c61-28 102-64 94-84-10-25-31-21-100 21-104 65-201 121-220 128-25 9-42 54-25 66 25 17 88-2 140-42zm-156-106c22-9 46-22 55-30s25-16 35-18c25-5 72-27 104-47l52-32c19-12 25-22 21-37-5-17-11-20-31-15-29 7-301 124-290 125 4 0 3 11-2 24-5 15-5 27 3 35 13 13 7 14 53-5zm539-65c-8-28-21-59-29-68-9-10-16-22-16-27s-15-32-33-59c-19-28-44-72-57-98-25-50-51-72-75-63-12 4-11 11 2 38 9 18 21 40 28 48 6 8 20 37 29 63 10 26 28 55 41 63 12 8 25 28 28 44 4 15 18 40 32 54s25 29 25 35c0 8 15 18 32 20 3 1 0-22-7-50zm126-81c7-13 15-25 19-28 15-12 51-133 49-168l-3-40-100-17c-56-9-111-19-123-22-15-3-23 1-28 17-14 43 123 280 160 280 8 0 20-10 26-22zm-601-38c69-26 100-42 95-51-3-4 9-10 26-14 28-6 48-29 36-41-3-3-64 9-136 27-123 31-131 35-131 58 0 28 28 53 50 44l60-23zm23-140c10 0 17-8 17-20 0-17-7-20-43-20-52 0-60 6-44 32 8 12 19 17 32 14 11-3 28-6 38-6zM6685 9798c-33-5-69-6-79-4-11 3-40-1-65-9l-121-34-124-37c-28-9-60-17-73-19-13-1-40-14-60-27-36-24-88-44-106-39-5 1-6-3-3-8 4-5-24-24-61-42-38-18-75-39-84-46-9-8-26-15-37-18-21-4-42-19-92-70-17-16-30-27-30-24 0 14-167-143-223-208-72-86-74-206-4-280 36-39 196-119 254-128 23-4 51-15 62-24 15-13 46-20 108-25 47-3 91-10 97-15s34-9 61-9c28 0 95-3 150-7 87-7 102-5 114 9 20 24 43 3 31-30-13-33-6-46 36-69 34-18 82-66 135-135 23-31 30-34 88-37 34-1 72-8 83-14 21-11 20-12-10-25-18-7-32-16-32-19 0-12 34-68 68-114 17-24 32-52 32-62s9-23 20-29 20-17 20-24c0-19 34-46 58-46 27 0 113 40 129 60 9 11 11 51 7 150-7 150-17 187-52 182-12-2-22 2-22 7 0 6 4 11 9 11s30 20 56 44l46 45-1 78c-1 79 5 153 16 185 3 11-4 25-20 39-26 23-27 42-1 32 8-3 15 0 15 7 0 6 4 8 10 5 10-6 79 40 94 63 4 8 19 23 32 35 13 11 24 29 24 38 0 10 6 22 14 26 19 11 67 156 73 224 6 65-10 144-43 210a436 436 0 0 1-268 194c-20 4-36 11-36 15s-46 11-102 15l-117 9c-9 1-43-1-76-6zm-270-274c50-33 13-108-43-88-22 8-28 16-30 48-5 55 25 71 73 40zm650-14c12-13 18-36 18-63 0-78-82-128-119-72-9 13-24 27-35 30-28 9-24 57 8 94 22 25 35 31 69 31 28 0 46-6 59-20zm-326-31c30-27 33-34 28-71-3-23-13-45-21-50-9-5-15-12-12-16 2-4-14-7-35-7-30 1-46 8-70 31-29 30-30 31-17 77 9 35 18 49 38 56 41 15 54 13 89-20zm-589-337c0-5 11-14 25-20 21-10 25-18 25-55 0-54-13-67-65-67-35 0-44 4-53 25-6 14-16 25-22 25-5 0-10 5-10 11 0 5 5 7 10 4 6-4 13 8 17 26 3 19 13 34 25 36 10 3 18 9 18 14s7 9 15 9 15-4 15-8zm-261-41c37-51 28-80-43-138-19-16-36-17-36-2 0 5-4 8-8 5-14-9-29 8-51 58-24 55-25 60-12 51 5-3 13 4 16 16 8 24 37 37 82 38 24 1 37-6 52-28zm535-83c14-23-2-52-31-56-22-3-42 31-35 61 5 23 50 19 66-5z"/>
	<path d="M11200 9321c0-11 11-33 25-49 18-21 25-42 25-70 0-32 4-42 20-47 26-8 25-30-1-93-12-28-19-58-15-67 5-13 10-13 48 2 24 9 53 23 65 31 24 15 63 8 63-11 0-17 58-77 75-77 20 0 29 20 16 33-6 6-11 19-11 29s-4 18-10 18c-5 0-10 21-10 48 0 34 3 43 10 32 6-10 8-2 3 25-7 52-14 58-46 44-14-6-37-9-51-5-22 5-25 9-16 26l10 23c0 11-44 15-66 7-22-9-24-7-24 25 0 19-5 35-11 35s-27 14-46 30c-39 35-53 38-53 11zM11570 8950c-19-5-39-16-45-25-5-10-20-33-33-52-16-25-21-43-17-63 6-29 12-37 92-130 62-71 163-204 163-214 0-4 18-26 40-48 22-23 40-46 40-50s22-31 49-59c28-29 55-65 62-81 6-15 15-28 20-28s9-6 9-14c0-7 6-19 14-25 7-6 17-35 20-63 10-70 18-82 68-98 24-7 48-17 53-20 6-4 28-10 50-13 38-6 89-17 145-32 14-3 64-8 112-11 84-5 89-4 113 20 27 27 33 72 13 98-7 9-44 33-83 54-113 61-211 132-255 183-22 27-40 52-40 56s-12 19-27 34a1481 1481 0 0 0-157 186 1614 1614 0 0 0-155 197c-15 5-111 131-111 145 0 7-5 13-11 13s-24 11-41 25c-32 27-35 27-88 15zm594-806c23-9 20-24-4-24-11 0-20 7-20 15 0 17 2 18 24 9zM5943 7510c-283-74-501-347-464-579 21-127 114-245 261-331 101-58 126-83 140-137a381 381 0 0 1 201-255c74-35 125-41 224-26 103 15 93 21 211-151l165-241c44-63 89-132 99-152 28-52 26-100-6-137-21-25-22-30-7-24 14 5 12 2-5-13-19-16-22-24-14-44 12-30 91-99 148-128 44-22 88-19 135 10 13 9 40 21 60 27 45 15 83 55 99 106 7 22 22 51 34 65 11 14 27 35 33 47 15 26 6 82-13 90-8 3-14 11-14 17 0 7-11 23-25 36-20 19-27 21-40 10-8-7-15-9-15-4s-20 9-45 9c-71 1-89 22-363 431-72 108-122 192-122 206 0 13 13 45 30 71 47 74 63 137 58 220-6 92-38 157-123 247-66 71-70 78-80 170-28 253-160 428-353 469-73 15-125 13-209-9zM10630 7443c-43-13-61-30-74-67-13-35-15-162-13-851l2-810 32-68c22-46 54-89 95-131 120-120 199-152 396-162 120-5 132-4 207 21 140 46 192 89 320 260a763 763 0 0 0 370 291c208 87 400 242 463 374 54 112 64 205 68 645 4 442 1 475-49 492-22 8-213 10-637 7a34067 34067 0 0 0-1180-1zm1370-107c18-23 8-61-17-64-30-4-53 39-33 63 16 19 34 19 50 1zm185-6c15-16 17-26 9-48-12-35-41-35-66-1-38 50 16 95 57 49zm179 1c15-16 16-34 12-121-6-101-16-151-16-75 0 25-12 60-35 101-40 71-41 77-19 98 20 21 37 20 58-3zm-1634-6c11-13 9-22-27-84-7-12-33 26-33 48 0 45 35 66 60 36zm164-8c8-13 7-24-4-45-23-41-52-40-73 2-15 32-15 37 0 51 19 20 62 16 77-8zm626 8c15-18 5-65-15-65-17 0-28 33-20 60 8 24 18 25 35 5zm305-18c0-26-20-25-23 2-3 16 1 22 10 19 7-3 13-12 13-21zm-775-5c0-19-18-42-32-42-4 0-8 14-8 30 0 23 4 30 20 30 13 0 20-7 20-18zm160-1c16-30 12-48-11-54-15-4-22 1-30 19-5 14-9 32-9 40 0 21 38 17 50-5zm152-3c8-25-7-73-25-76-14-3-17 4-17 42s3 46 19 46c10 0 21-6 23-12zm-29-168c9-38-5-55-32-39-22 14-28 29-12 29 5 0 12 12 15 26 8 30 20 23 29-16zm474-26c-9-9-28 6-21 18 4 6 10 6 17-1 6-6 8-13 4-17zm-288-320c27-34 27-93 2-143-39-76-71-72-92 10-14 50-9 79 21 127 24 39 42 40 69 6zm-275-144c31-11 78-84 74-113-3-20-9-22-58-20-51 1-58 4-92 43-38 43-49 84-25 93 21 9 75 7 101-3zm574-23c19-15 14-34-17-69-26-29-36-33-96-38-97-8-108 16-37 83 46 44 111 54 150 24zm-488-281c0-14-16-40-40-65-40-41-43-42-98-39-53 3-57 5-60 30-2 18 7 37 28 62 31 35 34 36 101 36 66 0 69-1 69-24zm404-4c15-10 38-34 50-54 28-50 15-72-44-76-40-3-46 0-91 47-49 51-64 93-36 105 20 8 90-5 121-22zm-234-114c11-24 20-58 20-76 0-37-32-107-54-115-31-12-82 76-71 123 10 41 55 110 71 110 8 0 24-19 34-42zM16585 7416c-100-17-249-65-363-117a847 847 0 0 1-362-286c-113-139-140-183-180-287a487 487 0 0 1-36-317c47-329 114-469 322-675a871 871 0 0 1 432-261c118-36 167-46 247-50 91-5 107-3 175 22l155 52a879 879 0 0 1 371 224c191 200 221 237 257 322 25 57 39 111 47 173 6 49 15 107 20 129 15 62 12 201-6 300-13 72-27 110-71 191a890 890 0 0 1-253 311c-36 23-85 59-110 78-55 45-308 169-372 184-79 18-188 21-273 7zm-268-407c14-14 6-39-12-39s-28 17-21 35c6 18 18 19 33 4zm-159-202c2-10-3-17-12-17-10 0-16 9-16 21 0 24 23 21 28-4zm547-107c0-8-8-16-18-18-21-4-49 16-41 30 9 15 59 5 59-12zm30-225c42-41 30-102-26-130-35-19-70-6-102 36-25 35-16 62 31 94 46 31 66 31 97 0zm-347-40c6-13 34-59 62-102l52-78-76 75c-75 74-93 100-81 120 11 18 31 11 43-15zm224-261c17-9 46-16 65-16 44 0 55-24 24-50-34-27-56-22-88 20-53 67-53 73-1 46zM8565 7351c-241-69-415-279-416-503-1-179 114-373 296-503a639 639 0 0 1 395-136h94l36-38c35-37 204-280 268-385 37-61 44-118 19-157a126 126 0 0 1-24-57c-3-7 2-21 11-31s14-20 11-23 13-20 35-38c47-37 86-41 136-15 16 8 53 15 81 15 46 0 58 4 91 34s39 42 41 82c1 26 10 60 19 77l27 48c5 11 13 19 17 19 14 0 8 24-12 48-11 13-27 23-37 22-69-8-92 0-146 50-57 52-337 456-337 486 0 9 16 55 35 103 87 219 51 452-105 681-135 197-334 279-535 221zm242-555c42-49 22-146-30-146-12 0-41 9-63 19-49 23-61 56-44 121l11 42 52-5c39-3 56-11 74-31zM2888 7295c-37-21-78-93-78-139s5-55 139-269c110-177 190-310 301-502l140-240 110-190c18-33 49-83 67-112 21-32 37-72 43-109 12-74 62-156 121-200 26-19 58-50 73-69 29-38 88-62 128-52 35 9 75 43 104 88 24 39 25 39 88 39 82 0 124 26 146 90 14 40 21 47 61 60 65 21 97 46 117 88 22 47 36 56 93 56 55 1 107 33 135 85 19 35 28 39 106 56 36 7 97 61 113 99 11 24 10 38-5 85-10 31-21 72-24 92-12 71-116 199-158 195-10-1-37 37-38 53 0 23-33 40-78 41-51 0-87-17-125-59-15-17-31-31-36-31s-29 25-53 57c-74 97-142 103-227 22-50-49-51-48-115 61-36 62-55 84-86 100-72 37-145 19-189-45-13-19-30-35-37-35-15 0-41 38-99 145-54 101-80 132-120 145-50 16-91 4-136-41-65-65-59-71-190 187-47 93-102 186-124 211-36 41-46 46-90 49-33 3-59-1-77-11zM19622 7294c-37-19-222-210-222-230 0-7-14-23-32-36-57-41-198-189-218-228-18-36-26-41-107-65-104-32-182-69-201-96-10-15-25-19-69-19-46 0-65-6-104-31l-49-31-49 51c-42 43-55 51-87 51-21 0-52-5-70-12-26-9-38-8-67 5-49 24-99 21-133-5-40-31-54-51-49-66 4-12-7-25-79-91-34-30-36-100-5-151 24-39 50-61 62-53 16 10 57-47 57-79 0-95 71-273 156-388 113-154 308-290 416-290 75 0 125 33 163 110 18 35 37 52 64 56 25 4 189 187 216 241 28 55 56 86 82 89 16 3 105 91 149 150 19 24 38 35 77 44 68 16 193 73 237 109 21 17 53 30 81 34 56 8 262 96 308 133 59 47 78 131 56 254a712 712 0 0 1-205 401c-58 59-93 85-153 114-94 45-174 55-225 29zM14547 7235c-27-13-66-40-89-60-30-28-45-35-62-30-87 27-177 7-277-61-49-34-52-35-100-25-46 10-55 8-140-26-50-19-105-49-122-65-30-27-35-29-94-22-57 6-66 4-125-27-34-19-85-57-113-85-48-49-51-50-90-43-46 9-84-1-167-42-69-35-104-79-111-139l-13-101c-5-42-2-63 10-88 9-17 21-29 25-26 5 3 11-2 15-10 3-8 15-15 26-15 42 0 74-37 208-239 125-188 137-210 139-253 0-27-3-48-8-48-15 0-10-42 11-87 19-44 66-73 116-73 13 0 32-10 42-22 65-83 108-96 189-57 52 25 129 109 138 149 8 37 6 36 95 54 98 21 149 48 187 100 21 29 43 47 62 51 37 8 186 96 224 132 15 15 27 37 27 49 0 55 19 73 106 99 91 28 125 52 152 105 16 32 21 35 74 41 64 7 152 46 187 83 19 20 23 34 21 78l-1 71c0 9 9 29 20 43 33 42 27 86-17 134-26 27-47 40-65 40-36 0-79 42-121 117-45 81-49 95-34 129 25 61 14 119-32 164-26 26-32 27-136 28-95 0-115-3-157-23zM250 7193c-75-39-105-139-57-195 12-14 182-132 377-262a12717 12717 0 0 0 530-362c19-10 59-38 89-62s75-55 100-69c25-15 65-43 87-62 23-20 68-51 100-70 33-19 70-45 84-57 45-40 383-271 465-318 28-16 71-46 97-68 79-65 127-88 184-88 90 0 164 48 164 107 0 53-28 81-153 154-150 89-436 279-742 494l-307 216-240 168-243 169-261 184c-100 70-195 130-210 133-18 4-43-1-64-12zM18804 4969c-62-9-123-24-137-33-37-25-51-67-42-129 18-115 20-109-129-340-74-115-96-174-96-258 0-46 8-107 21-155 34-126 35-140 7-147-12-4-33-7-45-7-13 0-42-19-68-43-62-60-62-91 2-147 26-23 60-44 76-47 37-7 43-22 51-123 3-47 15-114 26-148 11-35 20-74 20-86 0-55 100-174 215-255 154-109 219-137 300-126 99 12 140-1 212-66 83-75 105-77 172-14 52 49 75 87 91 153 16 64 55 85 140 77 126-12 142-11 154 7 17 27-20 68-95 106-76 39-146 44-246 18-34-9-68-13-77-10-19 7-21 30-5 40 6 4 25 36 42 73 24 52 31 81 32 136 0 39 4 76 9 83 4 7 33 30 64 52 211 146 271 284 264 599-2 59 3 113 12 145 49 169 57 210 51 268-7 76-24 108-75 142-22 15-38 30-36 35 3 5 29 11 57 15 64 9 99 26 133 66 40 48 32 89-24 121-20 11-110 14-495 15-401 1-486-2-581-17zm200-199c8-8-46-40-91-54-20-6-23-4-23 18 0 34 36 58 75 50 17-3 34-10 39-14zm-148-142c-19-95-18-107 12-200 27-82 31-109 34-238 2-82 8-153 15-164 7-13 8-28 2-44-7-19-2-52 22-133 34-115 34-116 139-204 122-104 113-89 107-177-7-87 10-151 59-223 29-43 24-55-37-86-71-36-106-27-222 52-57 39-146 108-197 155-50 46-96 84-101 84-19 0-41 66-42 125-2 56 2 67 31 108 42 59 44 105 8 173-38 73-58 180-59 319-1 88 4 136 17 180 34 112 115 250 169 284 44 28 51 26 43-11zM16570 4964c-75-32-119-119-157-309-45-228-61-561-29-622 9-18 16-45 16-61 0-36 39-133 85-208 41-69 44-105 13-176-20-47-21-55-9-142 14-105 4-211-30-343-32-125-38-165-29-208l19-95c6-30 19-62 29-72 33-32 101-24 119 15l42 87c40 86 50 135 51 253 0 108 17 206 55 317 16 47 25 96 25 134 0 99 11 121 115 226 52 54 95 105 95 114s18 34 39 55c29 29 42 52 50 91 6 28 16 61 22 73 7 11 15 54 20 95s13 79 18 86c24 28 61 300 61 444 0 149-22 167-280 222-95 21-312 36-340 24zM3722 4829a892 892 0 0 1-398-150 663 663 0 0 1-223-253c-49-99-63-157-63-261 1-116 21-195 134-537 111-333 112-338 44-338-74-1-165-72-185-147-31-110 76-233 203-233 84 0 169 60 215 152 17 34 31 69 31 79s10 25 22 33c19 14 69 16 340 16 345 0 340 1 354-58 20-84 97-178 170-208 18-8 58-14 88-14 107 0 201 99 193 202-7 85-89 168-167 168-45 0-70 16-70 46 0 14 38 137 84 274 116 341 140 438 140 570 1 121-20 197-82 299-116 191-321 316-584 355a684 684 0 0 1-246 5zm63-325 25-16v-557c0-363-4-551-10-541-8 13-10 13-10-1 0-9-7-23-16-30-14-11-18-10-30 6-19 26-21 1124-2 1143 15 15 14 15 43-4zm155-570c0-533-1-565-17-562-17 3-18 39-21 566-2 557-2 562 18 562s20-6 20-566zm-302-11-3-558h-24c-19 0-27 7-33 33-11 41-6 1053 5 1070 5 6 19 12 33 12h24l-2-557zm239-281c-1-152-2-25-2 283s1 433 2 277c2-156 2-408 0-560zm218 808c13-25 15-103 15-552 0-341-4-518-10-508-8 13-10 13-10-1 0-22-29-33-46-18-11 9-13 113-14 560v549h25c17 0 29-9 40-30zm172-56c111-118 118-268 32-675-61-289-70-323-92-327-27-5-32 38-30 308 3 736 2 698 19 714 23 23 33 20 71-20zm-779-469c1-269 0-500-3-512-3-13-10-23-15-23-18 0-38 67-91 306-51 232-53 244-53 399-1 142 1 165 20 206 32 69 82 121 113 117l26-3 3-490z"/>
	<path d="M4095 3905c0-275 1-386 2-247 2 139 2 364 0 500-1 136-2 22-2-253zM6260 4834c-59-9-100-26-117-48-26-32-57-48-71-34s-85 12-114-3c-56-28-129-93-153-134-41-68-42-129-7-265 46-174 88-276 133-321 41-41 49-66 24-75-33-13-28-94 6-94 11 0 19-7 19-15 0-22-30-78-46-88-25-14-97-201-135-350-21-85-27-193-11-209 6-6 8-27 5-48-11-83 27-138 132-186 121-56 358-91 539-80 291 18 460 71 524 166 20 29 23 44 20 88-3 29-1 55 2 57 21 13 19 95-4 190-40 165-127 392-145 381-9-6-41 57-41 78 0 8 8 13 17 12 10 0 21 10 27 26 8 24 6 32-17 56-15 15-27 31-27 35s17 24 39 45c49 47 60 70 109 222 72 223 76 300 20 384a396 396 0 0 1-179 136c-30 8-46 7-75-5l-37-15-37 39c-31 33-46 40-102 50-60 10-241 13-298 5zM10493 4723c-18-17-35-42-39-57-22-89 44-248 150-361 36-38 66-78 66-88s-13-44-29-76a585 585 0 0 1-76-306c0-90 5-122 23-174 30-84 75-148 118-169 31-14 39-15 77-2 31 12 51 28 80 70 170 245 354 360 577 360 215 0 350-91 489-327 151-258 227-344 377-428 48-27 111-72 139-100 79-78 97-87 133-69 49 24 111 182 97 246-13 55-39 69-120 62-66-5-73-3-117 25-66 42-98 104-169 326l-96 300c-134 421-393 660-828 763-54 12-125 17-305 18-129 0-298 4-375 9l-140 7-32-29zm172-129c9-4 28-30 42-58 41-81 114-167 183-212 21-14 41-33 44-41 4-9-7-36-23-62a625 625 0 0 1-96-393c5-70 3-94-10-122-56-118-125 28-97 206 11 76 55 177 106 247 65 89 57 130-35 187-82 50-169 160-169 215 0 38 16 48 55 33zm626-9a911 911 0 0 0 518-255c116-114 191-254 266-496 49-159 49-194 0-194-20 0-35 16-81 88a626 626 0 0 1-579 316c-103 0-130-4-196-26-74-26-192-88-204-108-3-6-15-10-25-10-29 0-35 43-16 114 20 71 50 126 112 202 63 76 69 98 42 134-12 17-42 37-67 47-140 52-245 166-178 193 35 14 303 11 408-5zM8785 4703a896 896 0 0 1-543-378 849 849 0 0 1 266-1192 828 828 0 0 1 476-133c144 0 156-6 156-74 0-64 29-96 85-96 39 0 46 4 60 30 21 40 19 58-10 112-14 26-22 54-19 63 9 23 101 67 132 63 20-2 32-13 47-43 31-64 48-81 82-88 39-8 78 22 88 64 6 23-2 36-44 83-28 31-51 61-51 67 0 5 23 35 51 65 65 68 84 69 140 9 51-55 94-61 135-20 21 21 24 31 18 57-10 48-25 67-64 79-75 24-86 58-45 138 32 63 55 70 117 31 77-47 148-21 148 55 0 52-28 75-95 82-97 9-92 1-97 180a848 848 0 0 1-255 610 865 865 0 0 1-778 236zm378-642c301-302 307-309 307-348 0-40-19-68-40-61-6 2-159 152-340 333-240 240-330 336-330 353 0 27 33 44 70 36 16-3 137-117 333-313zm11 298a521 521 0 0 0 311-372c6-30 4-38-10-43-13-5-64 40-212 187a5256 5256 0 0 0-204 212c-24 42 28 49 115 16zm-172-457c373-373 380-381 341-424-38-43-48-34-424 341-372 372-380 382-342 423 40 44 49 37 425-340zm-170-164c228-232 327-340 328-355 0-28-31-45-67-37-34 8-615 582-638 630-20 43-2 94 34 94 8 0 163-150 343-332zm-158-177c167-167 198-202 187-214-10-13-20-13-64-3-99 23-206 98-272 191-73 101-110 225-68 225 9 0 107-90 217-199zM13179 4468c-38-7-66-40-72-83-3-16-5-258-6-536-3-571-3-565 66-595 31-13 57-15 138-9a253422 253422 0 0 0 950 59l410 26c232 14 310 25 341 45 53 34 54 47 54 550 0 496-3 530-49 542-29 7-1795 9-1832 1zm1372-98c23-13 25-43 3-60-13-11-18-10-36 7-16 17-18 24-9 42 13 24 15 25 42 11zm194-10c17-18 17-21 1-45-19-30-24-30-48-8-18 16-24 53-11 66 12 13 40 7 58-13zm177 3c18-16 24-71 10-105-6-15-10-14-33 6-36 31-53 81-33 101 20 19 33 19 56-2zm-1641-3c18-10 18-12 3-43-22-42-21-42-39-27s-20 51-3 68c15 15 15 15 39 2zm169-9c15-28-7-71-35-71-30 0-54 52-35 75 18 21 57 19 70-4zm630-20c0-38-16-48-30-20-14 25-6 49 15 49 10 0 15-10 15-29zm310 3c0-8-7-14-15-14-15 0-21 21-9 33 10 9 24-2 24-19zm-780 2c0-17-24-38-33-29-15 15-6 43 13 43 11 0 20-6 20-14zm153-5c5-20-9-51-22-51-10 0-20 57-13 65 12 11 30 4 35-14zm155-15c4-20-16-66-30-66-4 0-8 21-8 46 0 38 3 45 17 42 10-2 19-12 21-22zm-18-170c0-6-4-17-9-24-14-22-33 11-25 44 7 26 8 26 20 9 8-11 14-24 14-29zm470-18c0-5-4-8-10-8-5 0-10 10-10 23 0 18 2 19 10 7 5-8 10-18 10-22zm-277-320c31-24 67-82 67-109 0-31-68-99-100-99-11 0-41 19-65 41-60 55-61 87-5 141 42 39 74 47 103 26zM722 4414c-32-22-29-73 5-116 15-18 53-61 85-95s58-70 58-80c0-11-12-48-27-84-24-57-27-77-28-179 0-112 1-117 36-191a494 494 0 0 1 234-235c79-39 81-39 195-39 103 0 121 3 177 28 34 15 72 27 83 27 12 0 56-33 105-79 92-87 128-103 169-75 30 19 41 52 31 91-3 15-40 61-81 103-85 87-88 98-49 189 99 236-6 501-243 616a441 441 0 0 1-368 5c-42-16-84-30-94-30-11 0-58 36-104 80-76 71-90 80-123 80-21 0-49-7-61-16zm703-285c92-46 146-134 153-250 5-82-14-139-45-139-20 0-360 335-369 363-20 64 151 81 261 26zm-206-333c122-122 172-179 169-192-6-32-47-45-123-41a293 293 0 0 0-283 322c11 128 26 123 237-89zM3744 2186c-31-14-57-42-85-93-12-22-37-38-105-66-94-39-134-44-181-26-66 26-129 4-197-71-52-58-57-93-25-195 11-38 10-45-25-125-46-103-48-105-106-135-69-35-84-64-83-161 1-104 14-131 83-169 51-29 57-35 85-105 17-41 36-85 43-97 16-29 15-50-4-106-21-62-9-98 59-170 59-63 91-75 154-59 68 19 95 15 185-28 83-39 85-40 110-99 32-74 80-110 161-118 111-11 172 20 203 105 19 50 50 92 69 92 7 0 45 14 84 32 67 29 74 30 110 18 90-29 181 12 243 109 31 50 35 83 13 121-21 37-19 53 21 154 41 103 54 120 106 147 64 33 78 60 78 153 0 111-16 139-105 187-32 17-35 21-91 146l-37 82 17 44c31 82 24 108-50 187-85 89-120 102-197 72l-54-20-81 28c-102 36-103 36-144 90-18 25-50 53-71 63-50 25-143 32-183 13zm299-373a596 596 0 0 0 307-479c0-108-25-193-86-291-60-97-97-135-170-174-90-48-158-63-294-63-115-1-129 1-180 26a583 583 0 0 0-195 157c-14 21-41 81-60 134-84 236-42 436 126 591a504 504 0 0 0 384 133c89-2 108-6 168-34zM8923 2151c-27-22-33-35-33-68 0-22-3-80-6-130l-7-89-106-29c-81-21-116-36-149-63-43-34-44-34-96-24-30 6-73 24-97 41-46 31-62 29-74-9-4-13 10-33 50-71l55-54-41-78-41-78-127 7-127 7-47-54c-26-30-47-56-47-59 0-4 15-23 34-43l34-37h285l-7-122c-6-116-8-124-33-144-14-12-38-54-53-93l-28-72 51-23 52-23 82 41 83 40 62-60c35-34 91-76 126-95 53-29 62-38 62-62 0-41 41-301 48-309 4-4 18-9 32-13 25-6 26-4 69 147 25 84 49 159 54 166 6 8 20 11 34 7 34-8 136 52 203 120 30 30 58 55 63 55 4 0 51-27 104-60 52-33 98-60 102-60 3 0 21 26 39 56l32 56-36 51c-20 27-49 61-64 74l-28 23 44 98c24 53 44 102 44 109 0 20 36 33 92 33 47 0 205 23 249 36 14 4 46 81 37 89-2 2-50 22-108 44-90 35-116 41-181 41-87 0-82-4-151 110a936 936 0 0 1-313 273l-90 52-7 60-14 118c-5 52-9 60-37 78-18 10-34 19-37 19-3-1-20-13-37-29zm173-472 131-30 86-129c84-125 87-131 87-186 0-50-6-67-51-146-45-78-66-102-169-192l-117-103-102-6-101-6-103 64c-100 62-105 67-160 155l-57 92v248l43 65c42 64 43 64 187 134 80 38 156 70 170 70 14 1 84-13 156-30z"/>
	<path d="M8781 1402c-69-56-70-58-70-105-1-43 3-52 45-97s52-50 132-69l87-20 73 34 72 34v73c0 40 2 82 5 93 3 13-7 34-32 61l-38 42-102 6-102 5-70-57zM1030 2098c-25-4-147-19-272-32s-231-27-236-30c-35-22 88-425 155-504 35-42 90-52 159-28 71 24 87 21 115-21 13-20 39-45 57-55 30-17 35-17 63-2 29 15 31 18 25 62-16 115-17 111 44 144 30 16 59 33 65 39 22 22 35 8 35-38 0-38 8-61 40-113 22-36 40-68 40-73 0-4-17-26-39-50-53-58-54-115-1-137 26-11 34-10 62 8 91 58 77 59 168-13 45-36 93-68 106-71 39-10 84 15 164 91l186 173c81 74 119 117 140 157 25 48 27 57 14 65-52 29-248 180-319 245-54 48-91 74-100 71-85-28-128-52-261-152-84-63-156-112-159-108-3 3-7 25-7 49a618 618 0 0 1-188 326c-6 3-31 2-56-3zM9472 1850c-61-28-112-69-112-92 0-11 9-33 21-49 17-24 27-29 62-29 39 0 45 4 85 56l43 55-17 40c-20 44-23 45-82 19zM5276 1329c-22-110 33-403 100-530 12-23 17-52 16-91-2-51 2-64 40-129 64-107 152-198 309-318 58-45 273-147 336-160 68-15 135-10 159 10 8 7 43 22 77 33 56 19 62 24 65 52 3 35-11 50-86 89-39 21-50 30-42 40 7 9 6 15-2 22-22 18-112 60-143 67-54 13-186 77-249 122-35 24-111 90-170 147-112 109-138 128-171 124-44-5-133 244-152 423-5 49-8 56-26 56-16-1-23 8-30 37-11 45-22 48-31 6zM1323 1190c-18-11-33-24-33-30 0-14-54-40-83-40-14 0-41 7-62 15-80 34-101-1-91-160 17-300 76-559 135-589 25-13 30-13 54 7 17 14 33 46 46 91 31 102 89 400 106 539 13 112 12 124-3 151-22 38-30 40-69 16zM8207 803c-15-14-6-44 16-52 41-16 66 28 28 49-23 12-35 13-44 3z"/>
</g>
<g fill="#f758">
	<path d="M874 10105a542 542 0 0 1-315-253c-22-43-24-59-24-177v-130l37-70c44-82 149-206 235-279l150-127c48-41 148-121 221-178 72-56 148-122 168-147 20-24 64-97 98-161l125-236c59-110 62-120 51-148-12-28-10-33 46-106 33-42 66-81 75-86 23-14 64-1 101 32l32 28-29 97c-25 86-32 99-63 118-26 16-44 41-72 102-155 338-189 419-203 481-9 39-21 162-27 275-27 499-68 694-175 840-42 57-104 98-194 128-83 28-149 27-237-3zm379-337c45-20 48-23 43-50l-18-93c-11-64-18-72-53-59-13 6-15 17-9 73l6 66-63 30c-75 35-80 41-67 71l11 23 51-20 99-41zm-206-70c89-39 95-43 90-67l-17-103c-8-48-17-78-25-78-10 0-184 76-193 85-2 2 10 70 29 158 6 26 13 47 16 47s48-19 100-42zm-211-92-12-81c-5-29-3-32 65-65 39-18 71-38 71-43 0-16-21-47-31-47-6 0-51 19-100 42-67 31-88 45-85 57 3 9 10 52 17 96 14 93 20 104 55 97 25-5 26-7 20-56zm823-1222c24-51 29-70 20-80-19-23-26-17-65 51-29 53-34 68-24 80 23 27 38 16 69-51zM10695 9979c-12-18-18-126-8-132 11-7 143 79 143 92 0 9-100 51-120 51-5 0-12-5-15-11zM11071 9959a803 803 0 0 1-413-217 476 476 0 0 1-154-242c-21-82-14-133 32-227a584 584 0 0 1 357-288c91-29 133-31 158-9 22 20 16 35-37 101-47 57-59 98-57 185 2 69 22 114 75 169 60 62 136 93 228 93 132 0 209-41 286-155 44-66 54-74 104-91 79-27 243-58 305-58 56 0 75 13 94 63 13 32 5 41-85 107a736 736 0 0 0-241 248 633 633 0 0 1-363 306c-68 21-217 28-289 15zM3945 9927c-71-102-12-267 96-267 13 0 36 12 51 27 29 28 36 70 19 115-13 33-88 116-122 133-26 14-29 13-44-8zM4215 9881c-47-28-65-63-65-124 0-46 4-57 31-83l30-29 19 25c40 51 63 165 44 214-8 21-22 20-59-3zM8722 9831a668 668 0 0 1-316-269c-38-76-59-175-52-250 5-64 41-161 53-148 4 4 13 34 20 66a699 699 0 0 0 298 426l34 18 47-37c26-20 51-37 56-37 4 0 8 21 8 48 0 26 10 75 21 108 12 34 19 69 16 78-9 23-116 21-185-3zM6579 9775c-288-47-575-171-812-352-96-73-241-223-265-274-44-91-18-186 65-239 144-92 396-157 679-176l101-6 45 63c57 80 88 108 162 153 106 64 174 81 316 80 104 0 134-4 179-22l54-21 29 24c48 40 98 105 129 167 113 224 55 442-143 544-126 64-355 89-539 59zm-139-233c31-25 32-88 1-113-54-44-140-1-127 64 12 61 79 87 126 49zm641-21c47-48 36-137-22-167-99-51-195 47-144 146 20 38 41 49 93 50 35 0 49-6 73-29zm-316-31c55-58 32-148-44-171-85-25-160 55-127 135 19 44 52 66 101 66 33 0 47-6 70-30zm-586-344c28-15 51-53 51-85 0-25-37-71-68-82-53-20-123 30-122 88 1 28 25 64 51 79 31 17 54 17 88 0zm-282-20c24-21 28-32 28-74 0-39-5-56-24-76-65-69-181-21-181 75 0 57 44 99 103 99 34 0 53-6 74-24zm543-83c38-48 8-103-56-103-58 0-84 65-44 108 29 31 73 29 100-5zM4086 9649c-31-25-33-57-6-87 49-52 115 0 101 81-3 18-31 5-31-15-1-19-3-18-15 10-8 17-16 32-18 32s-16-9-31-21z"/>
	<path d="M4346 9658c-109-13-129-20-137-52-4-16-16-37-25-47-26-28-8-75 26-72l86 9c39 4 69 2 83-5 30-17 61-70 61-106s-30-88-64-110c-13-9-121-47-238-85l-563-180c-315-102-358-113-425-114-66 0-82 4-137 33-59 31-63 32-91 17-101-52-95-306 14-541 80-173 227-315 327-315 42 0 66 24 78 79 13 57 58 125 104 160 22 16 148 89 280 164 522 294 841 480 914 535a346 346 0 0 1 102 438c-67 143-210 213-395 192z"/>
	<path d="M3910 9593c-30-14-100-40-154-57-126-40-142-57-122-131 22-83 31-95 75-95 22 0 69 13 106 30 36 16 119 42 183 56 129 30 177 58 156 92-6 9-26 21-44 26-22 7-44 26-67 58-41 56-53 58-133 21zM8714 9581a749 749 0 0 1-249-391c-16-58-24-70-85-127a612 612 0 0 1-202-384c-9-61-8-82 1-93 7-8 49-27 94-42 54-18 149-67 277-142 107-63 287-164 399-225l204-109 56 12c171 38 492 159 580 219 50 33 21 290-71 630l-22 84-156 102a5740 5740 0 0 1-505 296c-79 41-141 82-182 120-89 82-93 84-139 50zm459-469c69-105 102-202 68-202-8 0-181 214-181 223 0 7 28 14 61 16 20 1 32-8 52-37zm-69-118c61-64 112-122 114-128 1-6-4-20-11-30-12-17-24-9-160 109-81 69-147 129-147 131 0 7 62 33 79 34 7 0 63-52 125-116zm-98-76c90-68 164-130 164-139 0-8-6-24-14-34-13-18-18-16-107 42-52 33-143 89-204 123-60 35-114 67-118 71-11 9 71 59 97 59 10 0 92-55 182-122zm369-58c-9-22-237-413-251-431-9-10-25-14-49-11-19 2-35 6-35 9 0 5 126 221 236 406l59 98 22-28c13-15 21-35 18-43zm-560-11c155-77 295-160 295-174 0-6-6-19-13-28-11-16-28-11-209 69-153 67-197 91-202 108-8 30-7 86 2 86 4 0 61-27 127-61zm670-198c69-198 76-181-85-208l-169-28c-29-5-33-4-27 10 17 46 220 375 226 368 4-4 29-68 55-142zm-604 10c95-38 175-73 176-78 2-5-2-17-9-26-12-16-24-14-173 24-88 22-161 42-163 44-5 5-15 105-10 105 3 0 83-31 179-69zm-7-126c71-13 131-26 133-29 3-2-1-14-7-26-11-20-17-22-57-16-25 3-76 6-112 6s-71 4-78 8c-14 9-29 82-16 82 5 0 67-11 137-25zM11130 9462c-25-16-58-43-74-60l-29-31 29-6 52-11c49-10 79 37 70 110l-3 27-45-29zM4872 9454c-12-8-22-21-22-28s-11-23-24-35c-20-19-23-30-21-84l3-62 40 3c22 2 57-4 77-13 40-16 56-11 76 27 16 30-22 130-69 181-30 32-31 32-60 11zM3470 9400c-52-22-112-52-134-67-55-39-86-101-86-175 0-71 17-115 59-150l31-27 60 21c33 11 60 22 60 26 0 3-14 17-31 31-24 21-32 36-36 73-9 79 23 109 170 158 54 17 68 26 64 39l-18 64c-9 31-18 47-29 46-8 0-58-18-110-39zM11200 9321c0-5 12-24 28-42 20-24 27-44 27-73 0-41 0-41 38-40 21 1 36-1 35-5-43-80-76-156-72-163 9-14 19-10 98 42 42 28 79 50 83 50 3 0 3-14-1-32-7-34 20-84 57-107 30-20 33-3 8 45-22 41-23 50-14 102 17 89 6 92-87 27-36-24-66-42-68-41-2 2 10 31 27 65 17 33 31 63 31 67 0 7-46 0-72-11-15-6-18-2-18 19 0 16-14 42-36 66-34 37-64 52-64 31z"/>
	<path d="M8279 9091c-70-27-163-87-198-127-121-138-167-444-88-586 35-64 59-61 112 14 25 34 51 56 86 73l51 23-54 20c-48 18-53 23-61 58a563 563 0 0 0 164 467c38 38 69 71 69 73 0 9-38 2-81-15zM6695 8943c-136-48-228-121-277-222l-22-45 29-20c52-37 125-108 146-142 11-19 32-37 46-40 62-16 297 53 397 116l47 30-6 68c-5 59-2 92 21 203 5 23 1 29-43 50-39 19-67 24-153 27-94 2-114 0-185-25zM11558 8921c-56-36-82-72-74-103 3-13 94-135 203-273 311-395 300-378 307-446 5-46 12-63 29-74 49-32 344-95 444-95 51 0 76 29 71 82-3 31-10 36-117 94-62 33-137 82-166 107-52 45-157 171-454 540-131 162-164 197-188 197-5 0-30-13-55-29zm625-753c9-5 17-19 17-31s3-32 6-44c5-19 2-23-15-23-12 0-37 7-56 14-33 14-35 18-35 61v47l33-7c17-4 40-11 50-17zM6975 8506c-33-22-151-66-211-78-44-9-55-15-51-28 5-20 162-256 177-265 12-8 130 54 137 72 8 20-13 293-24 304-5 5-16 4-28-5zM9850 8363c0-79-7-91-72-124-33-17-58-32-56-34s40-13 85-23l81-19 36 48c20 27 36 53 36 59 0 18-85 140-97 140-9 0-13-16-13-47zM1989 8322c-60-39-119-91-119-107 0-25 29-23 111 10 75 31 109 54 109 77 0 8-41 48-50 48-3 0-26-13-51-28zM2040 8165c-109-24-140-36-140-51 0-22 43-34 126-34 61 0 78 4 94 20 11 11 20 24 20 28 0 8-38 53-43 51l-57-14zM1457 8091c-37-10-78-27-89-39-20-20-20-22-4-46 9-14 23-26 31-26 16 0 140 60 182 87 30 20 19 43-21 42-17 0-62-8-99-18zM1561 7981c-87-69-100-92-70-122 34-34 58-21 121 70 32 47 57 90 55 95-8 25-36 13-106-43zM5955 7484a614 614 0 0 1-291-169c-154-152-200-319-130-469 48-104 122-173 264-246l87-45 17-68c34-128 91-208 183-253 77-37 155-42 243-15l75 21c2 0 28-35 57-77l128-188 131-190c121-174 122-177 116-216-5-28-3-38 10-43 18-7 11-27-8-21-7 2-30-11-52-30l-40-34 27-27 26-27 41 29c22 16 43 37 47 46 4 15 9 16 27 6 17-9 19-12 6-17-26-11-89-63-89-75 0-6 7-20 15-30 13-17 18-18 39-7 13 8 39 27 56 43 20 18 39 27 48 23 13-5 10-9-11-20-43-22-76-49-77-62 0-6 10-19 21-27 20-14 25-13 65 14 23 17 45 35 48 42 5 10 7 10 12 1 9-20 23-16 76 23 41 31 49 41 44 60-19 77-19 74 3 74 29 0 81 39 81 61 0 27-11 49-24 49-20-1-93-55-88-68 6-18-15-15-22 4-10 26-7 31 22 37 15 4 41 17 57 31 24 20 28 28 19 42-21 34-38 37-76 13-21-14-35-30-33-37 3-8 2-19-2-25-3-6-16 9-27 34-16 33-27 45-48 47-28 3-36 14-330 452l-138 204 34 36c48 49 78 112 85 178 15 130-30 228-148 324l-48 39-6 92c-22 341-236 530-522 461zm373-418c8-5 12-37 12-92v-84h-30c-29 0-30 2-30 43 0 75-6 83-71 101-54 16-59 19-59 45 0 15 2 30 5 33 6 6 153-33 173-46zm-210-43c53-14 103-31 111-37 11-9 13-36 7-140-3-71-7-131-9-132-2-2-117 30-237 65-24 7-25 10-22 92 1 46 5 105 8 132 7 57 8 57 142 20zm-199-132c11-7 12-22 7-65-6-53-5-56 21-70 16-7 43-17 61-21 27-6 32-11 32-35 0-16-3-31-8-34-4-2-45 6-92 18l-85 21 3 85c1 47 5 91 7 98 5 14 34 16 54 3z"/>
	<path d="M6026 6978c-3-13-6-53-6-89v-66l68-22c37-11 73-21 79-21 17 0 23 26 23 101 0 76-2 79-85 99l-51 14c-17 5-23 2-28-16zm79-32c40-14 40-15 43-70 2-44 0-56-12-56-8 0-18 5-21 10-3 6-17 10-30 10s-27 4-30 10c-4 7 4 110 9 110l41-14zM11503 7423l-912-3-12-23c-9-17-12-221-12-842 1-798 2-821 21-873 29-76 96-157 176-213 86-61 140-78 285-90 93-8 124-7 175 6a515 515 0 0 1 321 226 845 845 0 0 0 381 328c139 58 148 62 216 108 140 94 248 213 284 315 34 95 44 241 44 654v402l-22 6c-13 3-25 5-28 3-3-1-415-3-917-4zm-748-113c0-45-4-65-12-66l-23-3c-6 0-10-45-10-111v-110h-70v361l58-3 57-3v-65zm175 4c0-57-3-67-20-71-11-3-20-13-21-22l-2-106-2-90-32-3-33-3v109c0 83-3 111-14 115-17 7-27 55-19 101l6 36h137v-66zm160-3c0-46-4-71-12-73-9-3-13-35-13-109v-104h-70l-1 98c-1 75-5 102-18 116-11 12-16 36-16 79v62h130v-69zm150-112v-180l-32 3c-36 3-35-2-37 156-1 44-4 55-20 59-22 6-31 48-23 106l5 37h107v-181zm160 115c0-45-5-70-15-80-11-12-15-40-15-115v-100l-47 3-48 3-1 170c-1 94 0 173 3 178 2 4 31 7 64 7h59v-66zm170-4c0-40-4-70-10-70s-10-43-10-110v-110h-60v201l-30 17c-28 16-30 21-30 73 0 31 3 59 7 62 3 4 35 7 70 7h63v-70zm146-105c1-93 0-173-2-176-2-4-15-4-29-1-25 4-25 6-25 102 0 98-9 125-40 118-12-3-15 32-12 105 2 27 3 28 55 25l52-3 1-170zm154 105c0-40-4-70-10-70s-10-44-10-111c0-97-2-110-16-105-9 3-31 6-50 6h-34v168c0 93 3 172 7 175 3 4 30 7 60 7h53v-70zm167-42c-4-62-7-143-7-179v-66h-60v198l-30 17c-28 16-30 21-30 80v62h133l-6-112zm191 52c2-30-2-63-7-75-6-11-12-65-13-119l-3-99-27-3-27-3-3 102-3 102-32 15c-32 15-33 17-33 78v63l73-3 72-3 3-55zm180-124c4-164 3-178-13-172-9 3-30 6-46 6h-29v98c0 101-7 122-42 122-15 0-18 8-18 43 0 84 4 88 79 85l66-3 3-179zm-867-396c32-55 40-76 34-97-8-35-104-213-115-213-4 0-10 10-13 23-2 12-19 60-36 105l-31 84 22 41c42 84 70 127 84 127 7 0 32-31 55-70zm-259-144c10-13 39-62 66-109l50-86-72 6c-39 3-91 11-116 17-42 10-48 16-92 91-27 44-48 85-48 91 0 8 33 12 98 12 91 1 98 0 114-22zm597-10c6-4 3-19-9-39l-43-76c-23-43-26-45-73-46-27-1-88-5-136-10-49-4-88-4-88 0s34 43 75 88c41 44 75 85 75 90 0 11 181 4 199-7zm-252-261c148-26 140-21 189-113l43-83-25-9c-14-6-56-10-94-10-64 0-70 2-92 30l-44 58c-33 42-85 142-74 142l97-15zm-217-1c0-7-47-69-105-136l-40-48-80 1c-44 1-90 4-102 7l-23 7 21 30c11 17 32 53 46 80 14 28 31 53 37 57 13 9 246 11 246 2zm114-151 37-112-26-43-47-86c-12-23-27-41-33-39-5 2-31 41-57 87-53 95-56 72 25 229 27 51 52 90 56 85s24-59 45-121zM16610 7390c-175-23-413-118-576-231-59-40-213-225-278-333-33-54-77-168-96-245-11-43 19-256 54-393 41-154 82-229 197-357 148-165 296-277 399-304 30-8 91-27 135-41 44-15 126-32 181-38l101-11 94 35 164 58a862 862 0 0 1 385 252c25 29 73 84 108 121 82 88 130 189 142 302 5 44 15 112 21 152 12 73 8 212-10 315-12 77-106 245-193 347a1413 1413 0 0 1-588 361c-87 20-144 23-240 10zm275-100c124-39 173-59 332-132 56-26 174-157 231-258l55-94c54-87 71-180 64-335-11-210-82-419-205-596a482 482 0 0 0-252-217c-224-108-287-128-405-128-146 0-290 32-405 90l-80 38c-72 30-284 260-351 383-64 115-109 283-125 470-6 65-6 66 52 175l87 164c15 30 48 80 73 110s58 73 75 95c75 99 187 161 449 250 87 29 103 31 190 27 74-3 122-12 215-42z"/>
	<path d="M16625 7264c-74-20-259-89-366-137-153-70-234-168-396-483l-57-112 13-73c35-208 45-248 76-310 52-106 91-155 235-300 131-133 137-137 220-168 87-33 146-49 257-70 110-20 204 3 430 109 56 27 118 53 137 60 19 6 47 27 63 48a1354 1354 0 0 1 203 377c14 18 41 138 50 220 9 80-3 184-31 275-20 63-133 240-203 318-77 85-83 89-176 121l-210 72c-143 49-206 63-245 53zm168-126c31-7 57-14 57-18-1-14-79-115-89-115-11 0-46 72-67 137-5 18-3 20 17 15l82-19zm-213-14c-6-14-10-42-10-62 0-50-10-84-24-79-12 4-106 117-106 127 0 4 28 13 63 22 90 22 88 22 77-8zm418-42c34-18 60-37 57-43-11-16-116-91-122-86-9 10-16 170-7 166l72-37zm-632-24c-3-13-6-48-6-78 0-84-8-89-71-43-56 41-85 70-78 78 9 9 135 64 148 64 9 1 11-6 7-21zm862-165c33-49 41-68 31-74-14-8-108-23-114-18-5 6 28 159 35 159 3 0 25-30 48-67zm-1041-50c17-32 34-68 38-80 6-22 5-23-57-16-80 8-112 19-105 37 9 23 78 116 87 116 4 0 21-26 37-57zm523-82c0-4 53-65 118-133 217-232 222-237 214-258-6-16-383-344-388-337-16 23-119 135-193 212a1435 1435 0 0 0-181 202c0 5 33 33 73 62 39 30 108 89 153 130 44 42 98 88 119 104 37 26 85 37 85 18zm656-198c-1-2-35 4-74 13l-70 16 56 80 57 81 17-94c10-51 16-94 14-96zm-1296 104c22-30 40-60 40-66 0-10-20-12-79-10-44 2-82 7-86 11-7 7 64 118 76 118 5 0 26-24 49-53zm-46-250c33-18 61-38 63-43 3-8-116-89-122-82-7 9-16 158-8 158 4 0 35-15 67-33zm1337-117c-9-44-19-80-22-80-12 0-110 112-104 118 8 9 129 50 136 46 3-2-1-39-10-84zm-1235-100c19 0 34-4 34-9 0-17-93-132-100-124-7 9-60 131-60 140 0 3 21 3 46-1 26-3 62-6 80-6zm1121-185c-23-52-46-93-52-91-10 2-53 109-54 132-1 14 64 38 141 53 3 0-12-42-35-94zm-977 7c0-4-4-12-9-17-5-6-14-27-20-47-21-63-34-65-71-8-18 28-31 52-29 54 6 4 91 23 112 25 9 0 17-3 17-7zm765-123c17-11 41-25 54-30 29-12 31-9-46-48l-63-31v65c0 72 6 78 55 44zm-651-5c3-9 6-34 6-56 0-45 7-43-93-17l-38 10 48 40c52 43 68 47 77 23zm210-125c9-34 15-62 14-64-2-1-31 7-65 17l-62 19 42 45c23 24 44 44 48 44 3 0 13-28 23-61zm212 26c20-14 43-25 50-25 28 0 12-16-45-47-33-18-62-33-66-33-6 0 2 77 12 113 6 22 5 22 49-8z"/>
	<path d="M16628 6642c-43-37-178-136-206-151-12-6-22-17-22-24 0-36 242-297 275-297 13 0 268 196 273 210 5 13-259 290-275 290-7 0-27-13-45-28zm108-124c45-48 74-94 73-115 0-10-30-40-72-72l-71-54-63 68c-35 37-63 73-63 80s17 24 38 39l77 56c22 16 42 29 46 30 3 0 19-15 35-32zM8553 7316a570 570 0 0 1-303-226c-38-59-83-191-83-245s46-189 89-261a851 851 0 0 1 309-282 647 647 0 0 1 372-58c18 6 38-19 149-181 242-353 223-322 217-360-5-30-2-39 18-54 22-17 23-19 4-19-11 0-38-15-59-33l-39-33 28-27 28-26 44 31c24 17 43 37 43 45 0 16 12 17 27 2 9-9 0-20-35-43-55-39-58-46-32-74l20-21 45 31c26 18 43 38 41 45-8 19 1 16 40-13 40-31 49-28 119 30l40 34-23 46c-26 54-28 78-7 70 8-3 32 8 55 26 39 31 40 32 24 61-14 28-17 29-37 16l-44-28c-13-8-23-19-23-26 0-26-16-10-40 40-19 40-31 53-50 55-15 2-34 16-47 35l-172 255-150 223 34 62c49 91 67 164 67 276 1 81-4 111-31 192-54 165-171 333-277 395a429 429 0 0 1-361 40zm365-378 62-19v-180l-32 3c-32 3-33 4-30 43 5 64-10 91-55 100-58 11-73 22-73 56 0 29 1 30 33 24 17-4 60-16 95-27zm-129-91 66-22-1-108c-1-59-3-110-6-113-6-5-187 43-208 56-10 6-11 31-5 115l7 107 40-6c22-4 70-17 107-29zm-232-97c12 0 14-12 12-67l-4-67 55-17c47-14 55-20 58-43 4-34-14-40-69-26l-82 21-39 10 7 82c8 104 13 120 32 113 8-3 21-6 30-6zM2888 7263c-32-35-58-85-58-113 0-12 42-88 94-170 122-190 246-396 354-585 47-82 115-199 152-260 36-60 93-158 125-217 35-64 66-108 75-108 12 0 155 72 168 85 3 2-198 339-340 570-30 50-113 200-183 335l-180 345c-57 109-94 145-150 145-21 0-39-9-57-27zM19522 7164l-123-126 73-48a687 687 0 0 0 328-572c0-27 2-48 5-48 19 0 324 139 341 155 11 12 29 46 39 78l17 56-31 118a736 736 0 0 1-162 327 567 567 0 0 1-237 161c-113 41-110 42-250-101zm214 50c27-9 53-20 57-24 8-7-93-50-119-50-10 0-14 12-14 38 0 58 3 60 76 36zm217-206c-21-4-50-7-65-7-27-1-28 1-28 48 0 88 6 89 72 24l59-58-38-7zm119-153c30-84 31-82-50-63l-50 11 31 64c17 34 34 63 37 63s17-34 32-75zm41-237c-3-38-9-68-14-68-4 0-24 9-44 21l-35 21 37 42c35 39 55 57 59 53 1-1 0-32-3-69zM14640 7240c-8-4-36-16-62-25-65-23-112-57-116-84-2-13 22-67 61-139 71-128 121-231 174-362 57-142 97-204 141-224 37-17 40-17 97 5 33 12 79 35 103 52 38 25 43 33 37 55-19 75-180 395-272 540-35 56-40 67-21 56 7-4 8-3 4 5-4 6-11 9-15 6-5-2-21 14-36 38-31 47-65 87-74 86-3 0-13-4-21-9zm38-168c12-8 7-42-7-42-4 0-15 6-26 13-30 23 0 49 33 29zm232-502c0-13-7-20-20-20-19 0-27 20-13 33 13 14 33 6 33-13z"/>
	<path d="M14760 7237c-35-15-34-15-21-31 7-8 10-20 6-26s-1-9 7-8c7 2 12-5 12-14-1-10 2-15 7-13 11 7 32-33 24-45-4-6-1-9 6-8 6 2 14-3 17-11 3-9 0-11-8-6s-11 4-7-3c9-13 42-5 61 16 13 15 11 25-21 90-37 75-42 78-83 59zM235 7145c-35-35-45-52-45-77 0-18 4-38 8-44s50-40 102-74c256-169 546-365 705-479l218-153 220-153 282-194 370-255c159-110 161-111 216-110 66 1 108 19 128 56 29 50 9 73-133 154-127 72-426 270-681 449l-670 470c-297 208-563 395-592 417-29 21-59 38-68 38-8 0-36-20-60-45zm787-566c26-17 48-35 48-39 0-16-85-27-93-12-9 15-18 82-11 82 4 0 29-14 56-31zm196-140c23-17 42-34 42-39 0-10-76-24-89-16-13 9-19 86-6 86 6 0 30-14 53-31zm201-142c48-33 43-47-20-47-39 0-49 14-49 68 0 26 0 26 69-21zm187-129c24-17 44-35 44-39 0-10-77-22-90-14-10 6-15 85-4 85 3 0 26-14 50-32zm557-389c34-37 36-63 5-54-36 11-85 44-92 61-17 44 43 39 87-7zM14220 7104c-140-57-138-41-31-253 51-100 89-187 85-193-4-7-3-8 4-4 14 8 46-50 36-66-5-7-3-8 6-3 10 6 12 4 7-9-4-10-3-15 3-11 12 8 53-72 44-88-4-7-4-9 1-5 11 10 47-50 39-64-4-6-3-8 3-5 12 8 26-20 17-34-3-5 0-8 8-7 7 2 12-5 12-14-1-10 2-16 6-13 4 2 24-20 44-50 22-33 43-55 54-54 9 0 57 12 106 27 68 21 94 34 110 55 17 23 18 31 8 47-67 108-122 222-187 388-85 217-110 265-164 325-34 38-85 68-113 67-7-1-51-17-98-36zm135-178c0-22-14-29-34-17-19 12-6 43 16 39 10-2 18-12 18-22zm269-525c10-15-19-42-37-35-17 6-23 25-10 37 9 10 41 9 47-2z"/>
	<path d="M13882 7003c-68-28-117-53-123-65-8-16 4-44 71-161 44-78 153-286 242-462 159-318 180-355 203-355 13 0 183 101 233 138 17 13 32 33 32 44s-18 51-41 89c-22 38-37 74-33 81 4 6 3 8-4 5-13-9-86 119-76 135 4 7 3 8-4 4-14-8-36 30-26 46 5 7 3 8-6 3-10-6-12-4-7 9 4 9 3 15-2 12-8-5-97 146-245 415-36 66-58 91-86 101-9 3-66-15-128-39zm141-200c3-5 1-18-4-31-7-19-12-21-29-12-29 16-26 50 4 50 14 0 27-3 29-7zm306-582c18-11 5-31-20-31-12 0-19 7-19 20 0 21 16 26 39 11zM19257 6886c-59-63-107-118-107-123s19-20 42-33c134-75 253-268 283-458 6-37 9-42 28-36 52 16 242 105 249 116 11 18 10 108-3 170a674 674 0 0 1-188 351 752 752 0 0 1-186 127c-6 0-59-51-118-114zM13598 6915c-43-16-137-75-156-97-7-9-15-31-18-50-8-50 70-200 229-440 127-193 182-284 257-426 48-90 69-99 167-71 104 29 120 37 133 70 15 35 10 51-63 184a6804 6804 0 0 0-246 486c-23 52-81 153-129 225-95 141-102 146-174 119zm82-271c0-19-28-30-42-16-8 8-8 15 1 26 14 17 41 10 41-10zm336-619c3-8 3-19-1-25-10-16-45 7-39 25 8 19 33 19 40 0zM3449 6881c-48-15-65-30-84-71-18-40-18-42 2-83 19-39 131-227 379-634 54-90 102-163 107-163 15 0 157 81 157 89 0 5-35 66-78 137-66 109-217 376-366 646-46 84-62 95-117 79zM14986 6802c-2-4 8-35 24-67 16-33 30-65 30-72 0-6 4-15 10-18 14-9 70 26 70 44 0 8-19 38-41 68-29 37-48 53-65 53-12 0-25-4-28-8zM13254 6756c-133-52-174-86-174-148 0-33 150-281 345-573 93-137 191-293 220-345 56-103 67-111 130-90 41 14 141 101 151 133 19 54 10 71-176 357a5731 5731 0 0 0-290 485c-72 136-117 205-132 205-7-1-40-11-74-24zm64-254c3-20 0-23-20-20-15 2-24 11-26 26-3 20 0 23 20 20 15-2 24-11 26-26zm430-664c3-13-3-18-22-18-20 0-26 5-26 21 0 15 5 20 22 17 13-2 24-11 26-20z"/>
	<path d="M18958 6673c-65-25-118-49-118-53s31-26 69-49c93-55 171-128 221-207 46-73 96-219 105-307 5-42 10-55 19-50 19 12 164 175 177 201 25 45-26 216-97 327-58 92-174 185-229 185-16-1-83-21-147-47zM3807 6660c-14-11-31-36-37-55-12-35-10-39 111-243 151-254 181-302 194-302 9 0 150 82 163 95 1 1-24 49-56 106l-122 224c-107 203-100 195-169 195-43 0-65-5-84-20zM18231 6630c-68-50-69-71-4-158 22-29 27-32 66-26 95 12 89 7 82 82-8 73-24 100-74 119-27 10-35 8-70-17zM18442 6630c-41-25-43-31-34-110 7-62 9-65 47-87 60-35 74-28 101 47 13 36 24 68 24 73 0 12-82 97-94 97-6 0-26-9-44-20z"/>
	<path d="M18693 6579c-35-11-63-24-63-29s21-10 47-12c44-3 49-6 76-50 35-57 33-73-23-146-22-29-40-57-40-63s22-36 50-68a878 878 0 0 0 207-449c3-34 9-65 14-67 7-5 45 33 174 175l67 74-5 86c-9 167-97 352-210 441a882 882 0 0 1-207 123c-14 2-53-4-87-15zm181-316c-13-88-14-88-72-17l-53 64h132l-7-47zm139-162c9-9-30-121-41-121-4 1-22 33-40 72l-32 71 52-7c29-4 57-11 61-15zm34-189 21-7-28-55c-30-59-34-57-45 23-7 51-1 55 52 39zM4205 6542c-81-50-80-73 10-225 50-83 80-125 88-120l155 99c5 3-118 226-136 247-20 23-79 22-117-1zM13063 6533c-20-8-15-34 17-101 30-63 43-72 73-49 16 11 15 15-9 50-14 21-32 54-40 73-14 34-18 37-41 27zM4499 6481c-16-17-29-40-29-54 0-28 30-87 44-87 20 0 166 105 166 120 0 32-34 50-94 50-50 0-61-4-87-29zM18113 6488c-30-15-34-30-23-91 8-40 17-59 42-79 18-16 38-28 44-28 12 0 44 90 44 122 0 18-58 88-73 87-7 0-22-5-34-11z"/>
	<path d="M18613 6493c-13-5-53-86-53-107 0-12 77-76 91-76 13 0 89 105 89 122 0 8-9 27-21 42-16 20-29 26-57 25-20 0-43-3-49-6zM4695 6408l-170-111c-217-144-491-313-635-392l-186-101c-89-48-90-50-52-124 18-35 49-81 68-102l35-40 115 62 245 132c204 109 735 466 735 494 0 33-102 194-123 194-7 0-21-6-32-12zm-25-178c0-46-4-62-16-67-19-7-106 27-111 43-4 11 101 84 119 84 4 0 8-27 8-60zm-265-130c11-18-6-120-20-120-26 0-105 40-105 52 0 14 87 77 107 78 6 0 15-5 18-10zm-255-206c0-36-4-56-13-60-17-6-109 27-114 41-4 13 107 86 119 79 4-3 8-30 8-60zm-270-153c0-44-4-60-16-65-20-8-116 33-111 48 4 11 106 76 120 76 4 0 7-27 7-59zM18287 6390c-88-70-69-293 42-479a840 840 0 0 1 353-331c79-35 114-37 161-10 55 32 71 74 64 161-19 242-242 556-468 659-58 26-119 26-152 0zM4813 6167c-4-8-38-36-76-62-69-48-71-52-34-92 35-40 83-25 151 46l40 41-21 37c-24 41-47 53-60 30zM4579 6002l-84-60-47-33 28-30c24-25 33-28 63-23 52 10 86 30 112 65l23 32-21 36c-11 19-24 36-29 37-5 2-25-10-45-24zM4330 5830c-41-28-79-52-85-54-16-6 8-39 39-54 37-19 88 0 126 46 34 42 37 58 12 89l-17 22-75-49zM13480 5845c-14-37-13-44 18-100 29-53 54-66 86-42 18 14 17 17-25 87-25 41-50 75-57 78-6 2-16-8-22-23zM4105 5700c-38-22-74-41-79-43-15-5 38-76 66-88 54-22 148 13 161 60 6 24-46 111-65 111-7-1-44-19-83-40zM3888 5585c-43-22-83-46-89-52-25-25 66-104 120-103 20 1 72 45 95 82 17 26 17 29-3 62-34 55-39 56-123 11zM18865 4949c-16-6-57-12-90-13-33-2-77-10-98-19l-39-17 7-62c9-78 20-108 39-108 10 0-2-24-33-72a3361 3361 0 0 1-202-332c-30-64-30-65-20-158 10-87 29-156 80-286 17-43 19-56 9-72s-10-24 0-40c10-17 8-28-19-76-31-55-32-57-26-152 3-53 11-114 17-136l12-38 31 30c18 16 47 37 65 46 36 19 36 20 21 101-13 74 0 120 47 166 19 18 34 39 34 46s-13 37-29 66c-75 132-98 402-50 557 35 109 167 310 204 310 8 0 23 29 36 68 28 87 27 85 52 67 18-13 83-15 447-15 262 0 439 4 462 10 65 18 113 106 71 126-26 13-991 15-1028 3zM16560 4928c-47-24-86-77-62-85 16-6 15-32-3-63l-14-25-1 30c-1 27-2 28-10 9-9-23-30-133-57-297-15-92-15-100 2-137 10-22 21-40 24-40s24 14 45 30c57 43 70 39 107-29l33-60 50 40c67 53 90 50 130-17l31-51 52 39c29 22 57 37 63 33 6-3 22-29 35-56 23-45 45-64 45-39 0 6 20 24 44 41l44 31 16 112c24 162 36 282 36 357 0 90-14 101-166 140-118 30-195 42-329 54-60 5-76 2-115-17zm68-103c2-2-8-20-24-40l-28-37-12 24c-6 13-15 34-19 47-7 23-6 24 36 17 24-4 45-9 47-11zm152-25c0-16-44-80-55-80s-35 55-35 78c0 8 17 12 45 12 25 0 45-5 45-10zm158-16c29-8 28-23-7-64l-29-35-16 39c-9 21-16 45-16 52 0 15 29 18 68 8zm149-38c5-5-21-76-28-76-11 0-16 11-24 54l-8 39 29-7c16-4 30-9 31-10zm57-15c7-10-16-71-26-71-4 0-8 18-8 40 0 28 4 40 14 40 8 0 17-4 20-9zM3693 4795a820 820 0 0 1-448-220 542 542 0 0 1-171-318c-25-140-8-217 143-670 93-278 104-320 91-333-11-12-20-12-47-3-45 16-106 6-145-25-43-32-71-101-62-151 13-67 106-145 174-145 38 0 120 41 154 77 37 38 69 115 71 169l2 44h762l6-54c10-96 61-172 141-210 66-31 104-33 155-6 49 25 88 70 101 121 9 33 8 46-8 82-36 81-110 120-188 98-57-16-64-14-64 17 0 16 43 155 95 308 116 345 143 444 151 559 12 166-46 314-172 438a794 794 0 0 1-453 221 754 754 0 0 1-288 1zm125-852-3-638-52-3-53-3v635c0 710-8 642 73 645l37 1-2-637zm115 631 37-7V3302l-49-4c-48-3-50-2-55 26-8 40-7 1241 1 1249s17 9 66 1zm-272-71V3348l-1-48h-97l-7 46c-8 63-7 1099 2 1149 7 35 11 41 47 51 22 7 43 13 48 13 4 1 7-25 8-56zm432 35 27-10v-588c0-323-3-600-6-616-5-28-7-29-55-26l-49 4v1260l28-6 55-18zm-583-633v-605h-75l-70 323c-70 321-70 323-70 477 0 176 10 217 73 295 29 35 126 115 139 115 2 0 3-272 3-605zm725 557c65-52 118-123 135-180 18-61 23-201 11-296-11-78-84-438-127-618l-16-68h-78v605c0 333 4 605 8 605s35-22 67-48zM6243 4801c-78-13-103-20-103-31 0-5 49-132 108-282l126-320c20-55 29-59 44-20l127 320c63 162 115 297 115 302 0 27-301 49-417 31zM5984 4726c-127-61-184-130-184-225 0-109 130-499 163-488 12 4 99 665 94 720l-2 27-71-34zM6744 4688c7-79 62-542 74-622 4-27 12-51 19-53 31-11 163 386 163 489-1 104-83 190-237 249l-26 10 7-73z"/>
	<path d="M19225 4750c-119-8-249-31-285-50-20-11-63-61-57-67 2-2 66 6 143 18 117 18 169 20 324 16 166-5 338-23 428-47 21-5 32-5 32 2 0 23-44 80-69 90-89 34-318 51-516 38zM10496 4697c-31-40-32-72-7-148a548 548 0 0 1 189-273l51-37-41-70c-107-186-126-384-52-550 29-64 82-119 116-119 25 0 75 52 152 159a708 708 0 0 0 271 231c95 45 159 60 263 60 159 0 280-49 377-151 62-66 101-123 199-291a791 791 0 0 1 357-349c79-41 108-68 141-128 35-63 76-28 116 99 30 96 32 110 20 136-13 29-44 31-85 8-41-24-91-12-152 36-27 22-62 60-76 85-35 59-85 201-146 410-54 187-75 246-127 350-131 264-346 433-658 516l-119 32-295 2c-171 2-314 7-340 14-25 6-64 11-87 11-36 0-46-5-67-33zm167-63c45-6 47-8 60-54a457 457 0 0 1 235-259c23-12 42-24 42-27s-18-28-39-57a567 567 0 0 1-110-471c10-37 9-42-28-94-49-69-65-81-89-61-56 46-81 226-49 348 21 80 59 158 119 239 25 34 46 64 46 66s-25 18-56 36a442 442 0 0 0-234 333c0 9 42 9 103 1zm612-15a961 961 0 0 0 663-396c46-66 114-216 153-340 62-196 78-248 76-248l-59-27c-65-31-55-38-129 87a590 590 0 0 1-359 295 681 681 0 0 1-439-18 807 807 0 0 1-243-162c-5 0-8 37-8 83 0 142 44 247 152 363 33 35 57 68 54 73s-38 21-76 36c-84 32-181 95-210 135-16 23-50 101-50 116 0 14 361 17 475 3zM6096 4693c-11-54-86-666-82-670 2-3 17 2 33 10 41 21 158 48 238 56 53 5 70 10 69 21-2 25-237 610-245 610-4 0-10-12-13-27zM6677 4683a12644 12644 0 0 1-237-584c0-5 18-9 40-9 50 0 168-24 246-50 32-10 60-18 61-17 1 2-13 124-33 272l-40 330c-9 83-18 96-37 58zM8811 4680a866 866 0 0 1-643-570c-31-91-33-101-33-250s2-159 33-250a847 847 0 0 1 208-334c97-97 203-163 334-207 88-30 105-33 230-33 74-1 151 2 171 7l36 7 13-45c7-26 10-66 7-95-5-43-3-51 14-61 36-19 109 13 109 48 0 7-15 30-34 50-18 21-38 55-44 76l-11 38 42 16c23 9 71 32 106 50 35 19 64 33 65 31l29-40c15-20 27-49 27-65 0-15 3-38 6-50 9-34 58-31 95 6s36 48-2 69c-51 28-79 52-94 83l-15 28 85 86 86 86 27-20c38-27 69-62 77-89 3-12 15-27 26-33 17-8 25-5 48 20 32 34 44 76 27 90-6 5-32 11-57 15-28 4-59 18-81 36l-36 30 44 88c24 48 44 93 44 100 0 31 96 2 140-43 19-19 39-35 46-35 22 0 54 51 54 85 0 47-20 60-71 47-30-8-54-7-90 2-27 7-51 15-53 17a1159 1159 0 0 1 12 229c-4 96-10 131-37 210a845 845 0 0 1-541 541c-84 28-110 32-225 35-71 2-150-1-174-6zm339-280a555 555 0 0 0 378-499l5-84-259 264c-327 333-334 340-334 347 0 12 150-8 210-28zm34-320c292-293 337-342 331-362-15-53-48-138-54-138-8 0-781 773-781 781 0 4 8 9 18 12l72 26c30 11 60 20 66 21 6 0 162-153 348-340zm-160-160c441-442 408-396 342-468-62-68-33-88-418 295-192 191-372 374-399 405l-50 56 55 56c30 31 58 56 63 56s188-180 407-400zm-170-166c209-213 382-390 384-394 1-4-23-17-55-28-113-41-70-71-445 305l-337 338 10 43c10 46 45 122 55 122 4 0 178-174 388-386zm-158-174c162-161 294-293 292-295-2-1-37 1-78 5a598 598 0 0 0-373 180 612 612 0 0 0-147 364c0 27 3 47 6 44l300-298z"/>
	<path d="M19155 4633c-84-8-244-33-269-43-34-13-33-29 9-153 34-98 35-107 35-244 0-131 2-143 18-143 10 0 35-18 57-40l38-39 43 39c55 51 79 51 128 1l39-40 42 35c23 18 49 34 58 34s32-13 50-30c19-16 40-30 47-30s30 16 51 35c22 19 44 35 51 35s27-14 45-32l33-32 34 33c26 25 39 31 56 26 21-7 21-6 19 132-2 124 1 146 23 213 44 133 54 180 39 189-45 28-508 67-646 54zm120-64c3-4-4-27-15-49-24-47-33-44-71 17-15 24-18 37-11 42 15 9 91 1 97-10zm223 6c6-6-29-73-46-87-16-14-45 11-63 54-10 25-10 31 2 39 13 9 97 4 107-6zm166-14c8-12-30-101-42-101-9 0-32 73-32 99 0 13 67 15 74 2zm-597-38c-9-56-22-60-51-17-14 21-26 42-26 46 0 5 19 8 41 8h42l-6-37zm703 11c0-14-5-35-12-47l-12-22-7 25c-14 48-10 70 11 70 15 0 20-7 20-26zm-823-23c-4-55-13-60-31-16-18 41-14 55 14 55 17 0 19-6 17-39zM13139 4429c-7-15-11-186-12-569-2-526-1-549 17-569 15-16 31-21 70-21 55 0 1600 96 1705 106 49 4 69 12 87 29l24 24v1021h-1879l-12-21zm179-86c-3-60-5-68-23-68-19 0-20-8-23-112l-3-113h-69v360h121l-3-67zm170 0c-2-52-6-67-17-65-24 5-28-15-24-123l4-105h-71v110c0 86-3 110-14 110-16 0-28 69-19 112 5 27 7 28 75 28h69l-3-67zm162-3c0-54-3-70-14-70-12 0-14-19-10-110l5-110h-77l2 104c2 101-4 131-22 124-5-1-10 27-12 65l-3 67h131v-70zm150-110v-180h-36c-36 0-37 0-31 36 4 20 3 72 0 116-5 69-8 78-23 73s-19 2-21 32c-2 21-3 53-1 71 3 32 4 32 58 32h54v-180zm160 115c0-49-4-67-15-71-12-5-15-27-15-115v-109h-100v173c0 96 3 177 7 180 3 4 33 7 65 7h58v-65zm170 1c0-36-4-68-10-71-6-4-10-53-10-116v-109h-59l-3 112-3 113h-25c-23 0-25 4-28 54-5 79-2 81 73 81h65v-64zm145-116v-175l-27-3-27-3-3 113c-3 109-4 113-24 111-19-2-23 4-26 39-2 23-2 55 0 71 4 27 6 28 56 25l51-3v-175zm155 116c0-36-4-68-10-71-6-4-10-54-10-116v-110l-47 3-48 3-3 178-2 177h120v-64zm167-43c-4-58-7-139-7-180v-73h-60v104c0 108-9 133-44 120-14-5-16 3-16 65v71h133l-6-107zm185 37-8-177-5-113h-58l-3 113c-2 91-6 112-18 113-52 3-50 1-50 69v66l73-3 72-3-3-65zm182 24c3-26 6-107 6-181v-134l-42 3-43 3-5 110c-5 102-6 110-25 108-26-2-35 13-35 64 0 69 4 73 75 73h62l7-46zm-1062-459c10-23 6-30-49-92l-67-80c-4-8 18-54 55-114 48-79 60-106 52-118-20-32-40-22-85 46-25 37-59 93-77 124l-31 55 38 50c67 90 125 154 139 154 7 0 19-11 25-25zm395-42c28-38 68-96 88-130l37-62-73-81c-40-44-83-87-95-95-20-13-24-12-39 12l-17 25 73 74 73 74-18 32c-11 18-40 60-66 93-64 84-64 84-44 106 9 10 20 19 24 19 3 0 29-30 57-67zm-197-19c35-30 110-136 110-156 0-8-33-46-74-87-58-58-78-72-94-67-20 7-142 159-142 178 0 22 23 50 86 102 36 31 69 56 74 56s23-12 40-26zM732 4397c-12-13-22-29-22-35 0-7 47-61 105-121l105-109-37-78c-33-69-38-89-41-170-4-75 0-104 17-157a447 447 0 0 1 239-270c63-30 74-32 182-32 112 0 117 1 194 38l79 38 96-94c105-104 132-118 162-91 38 34 25 61-79 167l-99 99 39 77c48 95 63 175 48 268a446 446 0 0 1-680 309l-35-24-106 104a515 515 0 0 1-126 104c-11 0-29-10-41-23zm631-212a330 330 0 0 0 246-379c-10-57-42-136-57-136-9 0-462 453-462 462 0 11 74 47 117 57 57 13 93 13 156-4zm89-611c-42-29-123-47-196-42-134 9-245 92-290 219-25 69-19 196 13 258l23 44 233-233c208-208 232-235 217-246zM16489 4304l-44-45-26 31-27 31-4-33c-2-19-2-55 0-80l4-47 51-10c29-6 135-25 237-41l273-46c49-9 90-14 92-13 12 12 45 115 45 139 0 38-9 38-45 0-33-34-42-30-77 31-12 22-28 39-36 39s-34-14-59-30c-24-17-49-28-54-24-5 3-19 24-30 47-34 68-37 70-73 45-17-12-43-32-58-46-36-33-58-23-87 38-13 28-27 53-31 55s-27-16-51-41zm-19-99c13-16 6-35-15-35-18 0-28 17-21 35 7 19 20 19 36 0zm170-29c0-22-19-30-35-16-22 18-18 30 10 30 15 0 25-6 25-14zm215-35c0-22-34-39-44-22-5 8-7 20-4 28 7 18 48 13 48-6zm170-41c0-8-8-16-17-18-13-2-18 3-18 18s5 20 18 18c9-2 17-10 17-18zM16376 4104c-4-10-1-23 6-30s108-29 223-49c116-19 257-44 315-55 98-18 106-18 118-3 21 28 15 51-15 56-189 35-489 82-584 93-48 6-57 4-63-12zM6263 4040c-79-9-205-43-240-66a54 54 0 0 1-15-72c7-10 28-6 98 17 49 16 116 32 149 36 130 13 127 12 123 53-3 43-6 44-115 32zM6430 4007c0-34 2-36 38-42 125-18 208-36 261-58 33-13 63-22 66-19 11 11 4 61-10 76-27 26-174 66-267 73l-88 6v-36zM16410 4008c0-27 69-183 107-240 40-61 42-68 31-93-11-23-10-29 6-41 18-13 97-26 166-28 35-1 35-1 33 42-1 23 2 42 6 42s42 30 85 68c72 64 140 148 131 163-3 3-42 12-87 19-46 6-126 20-178 30-138 28-300 48-300 38z"/>
	<path d="M19106 3985c-46-60-59-62-112-13-33 30-48 38-53 29-10-16 2-80 26-146l19-50 346-3 346-2 22 56c46 125 33 195-25 134-36-38-51-38-91 1l-32 31-33-30c-64-55-72-56-124-16l-47 35-43-35c-24-20-47-36-52-36s-27 18-48 40-47 40-56 40-29-16-43-35zm-36-131c0-23-31-30-46-9-10 13-11 22-3 31 14 17 49 1 49-22zm198 15c4-19-19-31-38-19-18 11-4 42 17 38 10-2 19-10 21-19zm205 7c7-17-18-40-33-31-5 3-10 15-10 26 0 23 35 27 43 5zm184-2c8-21-13-42-28-27-13 13-5 43 11 43 6 0 13-7 17-16zM5940 3906c0-34 12-52 28-42 4 3 6 21 4 40-6 48-32 49-32 2zM6837 3923c-14-13-7-63 8-63 10 0 15 11 15 35 0 33-8 43-23 28zM6197 3904c-85-18-177-58-177-77a17829 17829 0 0 1 101-346c20-70 25-79 38-65 9 10 201 485 201 497 0 11-89 7-163-9zM6440 3912c0-19 198-496 207-499s134 385 133 415c0 19-95 58-183 76-82 17-157 21-157 8zM6383 3873c-6-19-177-442-193-480-5-11-7-23-4-25 2-3 32-1 67 4 34 6 129 7 210 4l149-5-6 22c-15 58-194 491-204 495-7 2-15-5-19-15zM18340 3847c-33-26-55-51-55-62 0-24 119-117 139-109 23 9 76 91 76 117s-69 97-93 97c-6-1-37-20-67-43zM5963 3783c-3-10-19-49-36-88-58-134-137-408-137-472 0-30 5-29 48 9 43 37 154 90 230 109 28 7 52 17 52 22 0 23-135 437-142 437-5 0-11-8-15-17zM6806 3783l-65-220c-34-111-61-204-61-206 0-3 24-11 53-17a696 696 0 0 0 272-140c17 0-32 223-79 355-39 111-94 239-105 243-5 2-12-5-15-15zM18980 3760c0-10 9-24 19-30 13-6 137-10 335-10 301 0 316 1 326 19 5 11 10 24 10 30 0 8-107 11-345 11-336 0-345 0-345-20zM19075 3680c4-6 40-33 80-60 53-36 73-55 68-65-3-9 2-24 11-34 16-18 16-20-8-46-15-16-26-34-26-41s14-52 31-99c24-66 37-89 56-98 22-10 28-8 44 11 10 13 32 60 49 105 32 81 32 82 14 115-13 25-15 35-6 44 7 7 12 19 12 28s16 24 36 34c36 17 154 103 154 112 0 2-117 4-261 4-174 0-258-3-254-10zM16523 3588c-20-26-21-49-7-135 17-108 7-215-38-383-27-105-34-188-15-206 3-3 36-12 73-20 74-15 70-17 101 41 12 22 18 72 24 190 8 163 18 217 64 351 14 42 25 90 23 107l-3 30-105 18-106 19-11-12zM18578 3389c-92-69-91-83 15-204 79-88 240-199 329-226 96-29 100-26 122 82 20 100 22 93-39 126-62 33-163 110-248 190-48 46-93 83-100 83-6 0-42-23-79-51zM6205 3309c-222-32-395-116-395-192 0-75 115-144 297-179 154-30 433-30 588 0 180 35 295 105 295 180 0 77-175 160-405 192-83 11-296 11-380-1zM19425 3174c-67-19-94-22-107-15-26 16-38 14-77-16-26-20-50-28-93-31-58-4-58-5-68-43-6-21-11-55-13-76l-2-38 50-3c47-3 55-8 122-73 51-50 76-68 86-62 16 9 91 94 114 130 10 15 14 35 10 57-5 33-2 37 49 72 46 32 62 38 103 37 27-1 72-11 100-24 40-17 55-19 64-10 19 19-4 43-76 79-89 45-146 48-262 16zm-90-131c31-36 31-47-1-89-26-33-27-34-46-17-11 10-29 30-40 46l-20 27 29 30c35 37 47 37 78 3zM16470 2811c0-26 23-72 43-90 13-10 22-6 51 20 42 37 46 57 11 64l-49 10-40 11c-12 4-16 0-16-15zM3734 2152c-17-15-39-46-48-69-16-37-25-44-80-63-33-13-83-33-109-47l-48-24-62 21c-83 29-109 22-179-47-66-65-70-81-37-167l21-55-36-88-44-106c-4-10-39-35-77-55l-70-37v-210l66-35 67-34 35-91c19-49 40-105 48-122 12-29 11-37-9-78-12-25-22-52-22-59 0-24 110-154 136-160 13-4 50 2 83 14l59 20 84-39c45-22 95-43 110-46 23-6 31-18 48-71 29-88 72-117 174-122 61-3 75-1 99 18 34 27 52 62 62 117 6 39 10 43 53 59 26 9 76 30 111 45 72 33 85 35 125 14 15-8 45-15 66-15 32 0 44 8 103 69 37 38 67 78 67 89s-11 44-24 74c-21 47-22 56-10 73 8 10 30 60 49 110l36 92 60 29c33 15 65 36 70 46 15 27 11 165-6 197-9 18-32 36-63 49-60 26-64 31-96 114-14 37-37 88-51 112l-26 45 21 29c12 16 24 48 27 70 6 41 4 43-65 112-39 38-82 72-96 76-15 4-43-4-80-21l-57-27-72 30-105 43c-21 8-40 25-51 48-34 66-96 101-178 101-38 0-55-6-79-28zm265-293c158-53 296-207 361-399 18-52 21-79 17-140a550 550 0 0 0-98-305 464 464 0 0 0-304-221c-72-20-278-19-339 2a706 706 0 0 0-210 151c-31 37-73 128-106 227-20 60-22 83-18 185 4 85 10 130 26 169 34 87 139 213 222 266a588 588 0 0 0 449 65zM8918 2143c-25-26-26-35-30-150-1-67-6-124-10-128s-54-20-113-35c-86-24-114-36-146-65-31-28-45-34-62-29l-54 14c-17 4-52 21-77 38l-46 31-17-26-17-26 59-54 60-53-40-78-40-77-130 3-130 3-49-57-50-57 42-38 41-39h271v-249l-28-15c-21-11-35-33-56-85-15-39-25-75-22-80 4-5 26-17 51-27l45-17 76 37c41 20 80 36 87 36s31-22 54-49c26-30 71-65 117-90 78-44 85-54 86-126 1-41 34-252 41-259 2-2 15-6 28-8 24-3 27 3 71 157l47 160 44 5c57 6 141 56 204 119 27 28 53 51 58 51s54-27 108-59l98-60 35 57 34 56-26 35c-14 20-43 54-64 76l-38 41 47 104c25 58 50 111 56 118 5 7 32 12 61 12 63 0 264 34 275 46 5 5 13 24 19 41 13 39 14 38-110 84-77 29-109 35-213 38-39 1-41 3-100 95-47 76-76 107-145 164-47 38-127 93-177 122-51 28-94 59-97 68-2 10-8 62-11 118-7 97-8 101-35 117-39 23-52 21-82-10zm129-448 144-35c31-9 47-26 122-137 86-127 87-129 87-190 0-56-4-69-52-151-45-76-70-104-167-190l-115-100-102-7-103-7-102 63c-98 60-105 67-161 153l-58 90v261l41 63c41 62 42 63 177 127l152 74c21 13 16 14 137-14z"/>
	<path d="M8778 1394c-63-53-67-58-66-97 0-35 8-51 43-92 42-50 45-51 135-69l92-19 69 33 69 34v191l-36 38-35 37h-205l-66-56zM1015 2054c-44-7-170-22-280-34s-202-23-204-26c-6-6 82-269 120-357 58-138 74-146 195-102 38 14 74 25 81 25s24-22 37-49c42-82 65-96 106-63l22 18-26 52c-38 75-36 83 40 125 37 20 70 37 74 37s24 18 43 39c41 46 41 50-10 161-40 89-93 178-107 183-6 1-47-3-91-9zM1630 1943c-55-36-289-215-328-251-58-53-55-80 19-189 16-23 29-50 29-60s-23-39-52-65c-53-46-53-47-38-75 23-41 46-40 100 6 27 23 56 41 65 41s47-27 83-61c78-71 115-93 144-83 35 11 470 417 457 427l-122 86c-64 45-158 118-208 162-51 43-99 79-108 78-9 0-27-7-41-16zM9506 1862c-3-5-22-14-43-21s-53-26-72-41c-31-27-33-31-22-61 14-41 38-58 78-59 28 0 39 8 77 57l45 56-20 39c-19 37-33 47-43 30zM1331 1166c-26-41-81-76-121-76-16 0-50 10-75 22-24 12-48 18-52 14-16-15 7-347 32-471 29-143 68-260 91-269 11-4 21 7 34 38 36 80 101 387 130 611 20 149 4 201-39 131zM5331 963c32-199 212-457 419-602 94-66 252-146 328-167 99-26 200-41 239-35 33 6 38 10 41 37 2 18-3 36-12 43-16 14-101 38-157 46-71 10-215 57-279 91-80 44-190 127-252 191-66 69-154 195-201 291-23 45-48 82-55 82-9 0-12-6-8-16 13-33-19-6-39 34-29 58-33 59-24 5zM8204 785c-8-21 4-35 31-35 23 0 40 24 29 41-9 14-54 10-60-6z"/>
</g>
<g fill="#fea">
	<path d="M880 10101a558 558 0 0 1-313-244c-27-55-40-144-34-225 14-192 158-358 627-721 80-62 162-132 183-156s96-154 167-288c122-229 129-245 118-273-10-29-8-35 46-106 31-42 64-79 73-82 22-9 107 35 111 57 2 10-7 57-20 104-20 76-27 88-58 108s-49 53-149 270c-62 136-119 273-127 304-7 31-18 130-24 221-39 599-70 760-173 898a397 397 0 0 1-427 133zm331-310c52-21 94-43 94-47-2-47-31-187-40-190-6-3-24 0-39 6-25 9-28 14-22 45 19 111 25 97-53 129-39 17-71 35-71 40 0 27 13 56 25 56 7 0 55-18 106-39zm-167-85c53-24 99-45 101-48 5-5-33-209-40-216-5-5-157 61-191 83l-21 13 23 104c25 117 23 108 27 108l101-44zm-199-46c6-9-10-115-22-146-4-10 16-24 71-49 42-20 76-38 76-41 0-11-31-64-38-64-4 0-49 19-100 42l-93 43 6 50 16 113c11 62 11 62 44 62 19 0 37-4 40-10zm817-1272c32-69 32-98 0-98-12 0-30 23-55 69l-38 69 23 16c12 9 26 15 31 13 4-1 21-32 39-69zM10697 9973c-4-3-7-33-7-66 0-47 3-58 14-54 23 9 116 78 116 87 0 10-74 40-99 40-10 0-21-3-24-7zM11015 9941c-203-50-430-230-492-388-12-32-18-74-18-128 0-69 4-89 32-147 37-79 96-146 178-202 82-55 208-106 267-106 92 0 99 19 34 98-91 111-91 250 0 351 63 70 132 104 224 109 117 7 178-15 248-87 32-32 71-78 87-102 28-40 38-46 109-66 43-13 130-30 193-40l115-17 29 32c48 53 39 72-65 142a863 863 0 0 0-246 261 627 627 0 0 1-388 298c-77 16-226 12-307-8zm326-51c85-26 175-80 225-135 22-25 62-85 89-133 67-121 87-145 182-219 55-42 83-71 81-82-9-43-222 7-267 62-14 18-60 66-101 107-89 90-111 99-281 107-98 5-122 9-126 22-28 91-63 127-160 166-32 13-59 30-61 38-3 16 75 54 149 72 83 20 197 18 270-5zM3934 9895c-18-48-14-137 7-177 10-18 80-57 104-58 6 0 23 11 38 25 33 32 37 94 8 141-27 44-102 114-122 114-11 0-23-16-35-45zM4212 9874c-67-53-84-144-36-189 15-14 30-25 35-25 12 0 46 62 58 106 12 47 4 134-13 134-6 0-26-12-44-26zM8793 9840c-81-9-133-34-239-114a463 463 0 0 1-170-521l18-40 24 83a670 670 0 0 0 293 410l39 23 46-36c25-19 48-35 50-35s6 24 9 53c3 28 16 76 28 106 22 52 22 54 4 67-10 8-21 13-24 13l-78-9zM6543 9765c-331-63-663-231-895-453-157-151-191-222-150-314 25-57 68-90 183-140 152-65 419-118 595-118h73l29 43a590 590 0 0 0 666 225l70-22 54 60c104 115 163 281 143 406a361 361 0 0 1-188 256c-98 51-170 65-343 68-110 2-189-2-237-11zm-95-227c44-42 20-118-44-134-57-14-112 50-92 108 20 57 88 70 136 26zm630-12c32-30 37-40 37-79 0-52-21-82-73-104-41-17-87-5-122 32-34 36-34 104 0 140 51 56 105 59 158 11zm-310-29c16-16 26-40 29-71 5-42 3-48-30-81-29-29-42-35-77-35-56 0-110 50-110 102 0 40 32 95 63 108 36 16 97 4 125-23zm-875-367c39-34 49-67 35-117-11-40-58-73-103-73-46 0-92 33-104 74-30 112 87 191 172 116zm310 2c38-40 37-93-2-133-88-88-220 43-134 133 21 22 36 28 68 28s47-6 68-28zm231-73c19-15 26-30 26-54 0-37-37-75-73-75-33 0-67 39-67 76 0 35 37 74 70 74 10 0 29-9 44-21zM4081 9634c-25-32-25-33-5-62 34-49 122-1 100 54-8 18-9 18-19-3-14-31-25-29-29 4-4 36-22 39-47 7z"/>
	<path d="M4340 9654c-129-24-130-25-130-48 0-13-8-34-19-47-27-35-12-74 27-65 123 28 177 14 212-55 34-66 8-139-62-175-17-9-155-55-307-104l-565-180c-280-89-291-92-363-88-73 5-74 5-89-23-8-17-14-57-14-100 0-174 125-432 247-509 59-37 79-38 97-1 25 47 73 82 266 190 611 344 939 536 1008 591 131 103 162 277 80 440a319 319 0 0 1-178 155c-47 16-167 27-210 19zm-1192-844 33-20-42-50c-23-27-45-47-49-45-10 6-19 77-13 109 6 31 26 33 71 6zm30-225 52-18c-3-23-39-112-47-114-8-3-73 121-73 140 0 10 11 9 68-8zm139-205h46l-7-42c-4-22-9-45-12-50-7-11-31 3-77 46-37 33-42 64-10 52 8-3 35-6 60-6z"/>
	<path d="M3901 9584c-40-19-109-44-152-55-101-28-123-50-114-112 4-25 15-59 26-76 25-41 54-40 155 3 43 19 130 46 192 61 76 18 119 34 132 48 24 25 13 43-34 55-22 6-41 23-65 60-18 29-41 52-50 51-9 0-49-16-90-35zM8693 9560a737 737 0 0 1-223-371c-16-59-27-78-52-98a612 612 0 0 1-235-428l-6-71 39-20c22-11 59-25 84-32 25-6 124-58 220-114 341-200 594-336 637-343 21-4 84 10 190 42 265 80 436 156 453 201 22 57 7 199-46 434-58 260-44 233-175 323a5071 5071 0 0 1-500 299c-119 63-188 107-240 153-41 36-78 65-84 65-5 0-33-18-62-40zm465-412 62-110c44-82 50-100 40-118-6-12-15-20-19-18-9 3-191 226-191 233 0 5 59 23 81 24 9 1 21-5 27-11zm-45-154 119-122-17-32c-14-27-18-30-33-18-18 14-258 222-281 244-12 11-8 16 30 33 24 11 49 19 54 18 6-1 63-57 128-123zm-106-70 172-130c5-5-20-63-30-69-4-3-52 23-106 59-54 35-151 94-215 131-65 37-118 69-118 71 0 6 104 64 117 64 6 0 87-57 180-126zm354-16c10-13 18-30 19-38 0-9-58-114-128-235l-128-220-38 1c-20 1-40 5-44 8-8 9 16 53 146 271 123 207 141 235 148 235 3 0 14-10 25-22zm-511-71c161-83 270-148 270-161 0-6-7-20-15-30-18-24-23-23-250 77l-170 75-3 61-3 61 28-12 143-71zm624-142 41-112c3-8 15-9 46-2 23 6 45 6 49 2 14-15 69-182 62-187-13-8-125-26-163-26-34 0-38 3-49 36-14 41-4 41-183 11-43-8-80-10-82-6-7 11 227 401 235 392 5-4 24-53 44-108zm-587-31 175-70c12-8-14-54-31-54-21 0-305 70-318 78-5 4-13 31-17 60-5 42-4 52 8 52 8 0 90-30 183-66zm-7-124c149-27 142-24 128-55-10-23-16-25-78-25-37 0-94 3-128 6l-60 7-11 40c-11 47-8 57 17 51l132-24zM11135 9461c-50-32-100-79-92-87 4-4 31-9 61-12 59-5 60-4 71 72 8 51 3 54-40 27zM4863 9433c-9-16-25-38-35-49-25-28-23-142 2-135 24 7 73 2 102-10 22-9 31-9 43 1 45 37-19 220-76 220-10 0-26-12-36-27zM3485 9401c-49-20-104-45-121-54-109-57-146-216-73-318 27-38 45-41 111-21l58 18-35 32c-43 41-54 90-32 137 17 35 94 79 185 106 23 7 42 16 42 22 0 20-32 117-38 116-4 0-47-17-97-38zM11210 9319c0-6 11-24 25-41 17-20 25-42 25-68 0-45 9-54 43-41 14 5 27 7 30 5 3-3-13-39-35-80-58-108-50-116 55-50 48 30 87 52 88 48s0-23-1-43c-1-39 39-99 67-99 12 0 9 9-11 44-24 41-25 46-14 105 6 33 8 64 5 68-4 4-42-17-83-46-42-29-78-50-81-47-3 2 11 34 30 70 19 37 31 68 27 71-5 3-20 1-35-5-40-15-58-13-51 7 4 10-4 32-20 55-29 42-64 67-64 47z"/>
	<path d="M8295 9092c-173-59-267-167-316-362a569 569 0 0 1 12-337c35-67 54-66 113 3 27 31 67 64 89 74l39 18-51 17c-60 20-65 30-64 141 1 147 75 310 185 409 28 25 49 47 47 50-2 2-27-4-54-13zM6753 8955c-82-18-182-68-239-118-45-40-104-129-103-157 0-8 21-28 47-45 26-16 69-59 97-94l50-63 70 5c84 6 244 57 318 101l52 31 6 115c3 63 11 128 17 143 7 16 12 31 12 33 0 3-25 17-56 31-69 31-181 39-271 18zM2907 8930c-142-112 17-640 237-787 26-18 66-38 87-45 35-10 43-9 67 9 33 25 41 53 15 53-39 0-124 53-175 110a905 905 0 0 0-159 280c-17 49-24 94-27 182-4 104-2 123 17 160 11 23 18 45 15 50-9 15-51 8-77-12zM11554 8911c-21-15-48-38-59-50-18-21-18-23-1-54 9-18 120-162 247-322 126-159 236-304 244-322 8-17 15-48 15-70 0-21 4-44 8-51 20-31 256-89 408-99 88-6 92-5 107 18 22 30 21 62 0 81-10 8-61 38-114 65-54 28-116 66-139 84-50 40-175 187-400 469-245 308-242 306-316 251zm601-727c39-7 55-31 55-84 0-38-8-41-60-26-48 14-58 30-59 90-1 29 2 37 13 33 8-3 31-9 51-13zM6931 8478c-36-16-99-38-140-49-41-10-76-20-77-22-8-8 172-267 185-267 9 0 40 14 69 30l52 30v64c0 91-12 246-19 245-3 0-35-14-70-31zM9854 8339l-7-71-53-26c-30-14-54-29-54-33s24-12 52-19l74-16c17-4 29 5 58 45l37 50-47 70c-26 39-48 71-50 71-1 0-6-32-10-71zM1948 8288c-66-51-88-89-50-87 30 1 164 63 176 82 8 12 8 22 0 35-21 33-56 25-126-30zM1995 8149c-137-34-126-61 24-57 77 3 96 6 105 21 14 21-3 51-30 54-10 1-55-7-99-18zM1493 8095c-99-22-133-40-133-69 0-15 8-30 20-36 17-9 36-3 113 37 52 27 92 55 92 63 0 20-19 21-92 5zM1566 7980c-42-34-80-68-83-77-9-23 10-48 40-51 22-3 33 7 72 60 59 80 72 105 58 119-7 7-34-9-87-51zM5905 7463c-241-84-406-293-393-499 10-148 96-259 278-354l104-55 17-72c10-39 27-89 38-111 27-54 111-127 168-146 66-23 160-20 228 5 31 12 58 19 61 16l224-323c206-301 219-321 213-355-3-22-1-39 6-43 16-10 13-26-5-26-16 0-74-36-86-54-9-14 20-46 41-46 20 1 75 49 85 74 6 18 8 18 32-5 23-22 24-24 7-28-10-2-35-17-55-33-32-25-36-33-28-49 6-10 18-19 26-19 20 0 84 51 84 68 0 15 15 15 41 2 22-12 26-35 5-27-8 3-33-8-55-25-40-29-41-31-25-49 25-27 39-24 83 20 33 33 41 37 53 25 11-11 20-9 60 19 57 39 62 50 43 87-22 43-20 63 8 57 15-4 32 3 55 21 30 25 32 30 23 55-9 22-14 26-28 18-27-14-73-59-73-71 0-19-17-10-29 17-13 28-3 43 29 43 9 0 31 12 49 28l33 27-24 22-23 22-33-25c-17-14-32-34-32-45 0-28-19-23-32 9-18 41-39 62-62 62-14 1-33 19-58 55l-204 302-180 264c-20 23-18 34 17 71 17 18 42 56 57 83 21 42 26 64 26 135 1 78-2 90-33 148-19 34-50 77-71 95l-68 60c-30 26-32 31-32 95 0 194-100 381-238 449-47 23-72 28-152 31-83 2-105-1-175-25zm344-364c42-12 82-26 89-32 9-7 12-35 10-96l-3-86h-70l-5 64-5 64-60 17c-44 12-60 21-59 33 3 67-2 65 103 36zm-129-73 115-33 3-141c3-166 15-156-133-111l-122 36c-26 6-27 10-16 176 5 89 9 107 22 107 9 0 68-15 131-34zm-211-125c23-6 24-10 22-72l-2-66 48-13c64-17 74-27 67-59-4-14-8-29-10-32-3-6-164 34-182 45-5 3-8 27-5 53 14 166 11 159 62 144z"/>
	<path d="M6025 6937c-12-95-7-109 50-128 28-9 61-19 75-21 25-3 25-3 25 82v84l-55 18c-85 26-88 26-95-35zm90 9c40-14 40-15 40-65-1-27-4-53-7-57-4-3-26 0-50 8-41 14-43 17-46 57-3 46 2 71 15 71 4 0 26-7 48-14zM10980 7410l-395-5-8-295c-4-162-6-540-4-840 2-518 3-547 22-594a512 512 0 0 1 315-270c105-24 255-29 323-11a527 527 0 0 1 312 225 865 865 0 0 0 454 357c152 57 336 215 396 337 57 117 65 196 65 683v422l-542-2c-299-1-721-4-938-7zm-50-94c0-65-2-74-20-79-17-4-20-15-22-113l-3-109h-70l-3 113c-2 90-5 112-17 112s-15 15-15 70v69l58 4 75 5c15 2 17-7 17-72zm168 0c2-52-1-71-12-80-12-8-16-36-18-116l-3-105h-70l-3 102c-2 74-7 104-17 113-16 13-22 140-8 154 4 4 34 6 68 4l60-3 3-69zm150-113 2-183-25-6c-50-13-55-3-55 110 0 104 0 106-25 112-24 6-25 10-25 73 0 37 3 71 7 75s32 6 63 4l55-3 3-182zm-488 107c0-63-2-70-20-70-23 0-22 2-24-130l-1-95-42-3-43-3v179c0 98 3 182 7 185 3 4 33 7 65 7h58v-70zm648 1c2-50 0-67-12-73-13-7-16-29-16-112v-104l-47-4c-27-3-51-3-55-1-5 2-8 85-8 184v180l68-3 67-3 3-64zm164 3c1-36-1-69-5-73-5-5-9-55-10-112l-2-104-37-3-38-3v209l-31 11c-31 11-32 12-25 57l6 65c0 17 8 19 69 19h69l4-66zm148-115v-180l-32 3-33 3-5 105c-5 100-6 105-27 108s-23 8-23 73v69h120v-181zm160 111c0-40-4-70-10-70s-10-43-10-110v-110h-110v360h130v-70zm167-42c-4-62-7-143-7-180v-68h-80v211l-30 6c-30 5-30 6-30 74v69h153l-6-112zm177-40-8-178c-1-22-6-25-38-28l-38-3v99c0 103-5 116-45 124-17 3-21 12-23 57-5 80-4 81 84 81h76l-8-152zm190 75c3-42 6-123 6-180v-104l-52 3-53 3-5 105c-5 100-6 105-27 108s-23 8-23 73v69h147l7-77zm-918-431c17-11 83-119 89-144 3-16-14-58-55-135-34-62-64-113-68-113s-20 37-36 83c-16 45-35 94-43 109-11 24-11 31 0 50 8 13 31 53 51 91 37 68 42 73 62 59zm-219-204c35-39 125-200 116-208-11-11-211 16-229 31-14 11-104 169-104 182 0 3 42 8 93 10 50 1 95 4 98 5s15-8 26-20zm596-13c9-4 17-10 17-14s-18-41-41-82l-40-75-137-12c-82-7-140-8-146-2-5 5 26 47 80 105l89 96 80-5c44-2 88-8 98-11zm-254-260c158-28 152-24 201-120 29-54 41-88 35-94-12-11-176-18-192-8a925 925 0 0 0-142 225c-1 15-5 15 98-3zm-203-8c6-6-46-75-117-155l-39-45-97 7c-53 4-99 9-102 12s3 20 14 37c10 18 32 57 47 87 28 54 30 55 81 61 60 8 204 5 213-4zm109-134c22-65 39-123 39-130-3-23-97-173-109-173-14 0-105 154-105 176 0 18 119 244 129 244 4 0 24-53 46-117zM16630 7384c-47-6-112-19-145-29l-85-22c-52-12-260-111-327-156a931 931 0 0 1-203-203l-56-76a920 920 0 0 1-148-323c-6-29 21-238 44-340 31-140 78-249 139-325 71-89 198-214 275-272 96-72 123-87 201-109l145-43c47-14 125-28 175-32 86-6 95-5 185 28l150 53c30 10 98 39 150 64 88 42 105 55 229 181 143 145 184 196 211 269 36 91 39 108 61 275 23 177 24 169-10 361-14 79-126 267-223 377-43 47-229 171-354 236a655 655 0 0 1-414 86zm235-81c119-35 320-116 382-155 79-48 260-306 307-437 17-47 20-80 20-206-1-132-4-160-26-235-35-113-71-206-109-282-32-63-150-228-185-260-26-22-295-151-374-179-54-19-85-23-190-23-155 0-241 19-369 79-54 25-103 45-109 45-7 0-72 60-145 133-205 208-264 322-317 612-11 61-20 125-20 143 0 51 149 335 230 437l72 91c58 76 156 135 343 209 209 82 292 87 490 28z"/>
	<path d="M16605 7250c-71-18-259-91-358-139-95-47-111-59-159-118-77-96-97-125-161-242-119-218-112-199-98-293 38-252 56-304 142-428 51-72 253-276 304-305 88-51 219-90 375-111 25-4 73-1 105 6 54 11 202 67 280 107l100 45c38 16 80 41 93 56 141 169 252 446 255 637 2 146-19 224-93 355-71 123-193 269-238 284l-106 38c-154 59-346 118-378 117-18-1-46-5-63-9zm168-101c45-11 83-22 85-24 5-5-55-89-82-114l-26-24-16 39-35 83c-20 45-23 61-13 61 3 0 42-9 87-21zm-195-89c-7-46-18-85-25-87-11-4-129 134-121 142 10 10 144 42 151 36 4-4 2-45-5-91zm412 35c37-19 71-39 74-44 6-10-104-101-122-101-5 0-13 8-17 18-10 24-19 162-11 162 3 0 38-16 76-35zm-622-100c-3-53-8-98-11-102-12-12-160 103-154 120 2 8 143 75 161 76 5 1 6-42 4-94zm864-97c26-40 44-76 40-80-13-13-122-32-131-22s26 174 37 174c4 0 28-33 54-72zm-1037-58c45-90 45-100-2-100-52 1-122 15-135 28-7 7 4 31 37 76 26 36 51 66 56 66s25-31 44-70zm635-207 178-191c23-24 42-54 42-66 0-15-54-67-191-181-104-88-195-161-202-162s-34 25-62 57c-27 33-112 125-188 205-76 81-137 151-135 155 2 5 37 34 78 66 41 31 110 88 152 128 111 103 153 133 183 135 6 1 71-65 145-146zm529 28c8-49 11-93 8-98-7-11-147 16-147 28 0 15 105 159 116 159 5 0 16-40 23-89zm-1303 31c52-63 68-92 57-103-12-12-183-1-183 12 0 10 82 129 89 129 3 0 20-17 37-38zm38-317c1-10-125-98-131-92-5 6-20 162-16 170 6 10 145-64 147-78zm1274-72c-11-48-21-90-24-93-8-7-114 108-114 124 0 13 101 54 136 55l21 1-19-87zm-1214-99c13-5 13-10 5-27-16-31-90-127-98-127-4 0-14 19-23 43l-32 80-16 37h74c41 0 81-3 90-6zm1136-103c0-14-80-180-90-186-12-7-33 34-53 102-18 60-18 61 58 79 62 15 85 17 85 5zm-1018-67c7-7-38-114-56-132-10-10-20-2-50 44-21 31-36 57-34 59 4 4 109 33 124 34 6 1 13-2 16-5zm780-136c37-18 67-36 67-40 1-7-125-68-140-68-11 0-12 140-1 140 4 1 37-14 74-32zm-660-35c2-32 2-61-1-65-8-9-131 22-131 32 0 12 100 90 115 90 9 0 15-20 17-57zm209-93c10-36 16-67 13-69-3-4-123 28-133 35-7 6 83 104 92 101 6-2 18-32 28-67zm215 25c20-14 43-25 51-25 24 0 5-18-58-55-70-41-81-43-75-12 3 12 8 43 11 70 7 55 18 58 71 22z"/>
	<path d="M16570 6589c-52-39-112-83-133-97l-37-25 17-27c27-42 168-195 218-236l44-35 128 101c70 56 129 106 131 111 4 11-248 279-262 279-6 0-54-32-106-71zm235-153 20-38-36-31c-20-18-57-47-82-64l-45-33-66 74c-39 43-64 79-61 87 6 15 73 67 134 107l36 23 40-44c22-24 49-60 60-81zM8623 7328c-243-36-436-247-437-477-1-194 131-398 334-518 117-68 193-88 330-87l115 2 170-247c154-223 170-250 171-290 0-33 6-47 24-61 24-18 21-23-20-34-14-3-36-15-49-27-26-21-23-41 11-62 19-13 88 39 88 66 0 20 20 23 38 5 14-14 16-38 3-38-5 0-27-12-50-26-33-22-38-30-31-45 6-10 15-21 21-24 16-11 89 43 89 65 0 21 15 27 25 10 3-5 18-18 34-29l29-21 48 37c64 48 65 51 45 92-10 20-22 46-25 59-6 19-4 22 21 22 15 1 41 12 57 25 27 21 29 26 18 49-11 24-42 37-42 18 0-5-11-15-25-22s-25-22-25-33c0-31-23-14-50 39-20 38-31 50-53 52-15 2-31 11-36 20l-170 255c-89 131-161 243-161 248s13 33 29 62c51 92 65 151 66 272 0 126-17 192-87 333-116 232-294 341-505 310zm292-382 70-22 3-88c2-49-1-93-6-98-4-4-22-5-40-2-30 6-31 8-34 68l-3 61-54 17c-68 22-73 27-65 66 7 36 4 36 129-2zm-155-84 95-28 3-114c1-62-1-117-5-121s-57 7-118 24l-110 33 4 109c2 61 5 113 8 118 7 11 21 9 123-21zm-195-110c6-4 11-36 10-71v-63l55-17c54-17 55-18 52-51-1-19-4-36-7-38-2-2-46 7-97 20l-93 25 3 64c5 121 10 139 40 139 15 0 32-4 37-8zM2901 7264c-30-25-71-91-71-114 0-6 62-111 138-233 151-242 233-378 337-562 38-66 98-169 135-230l124-212c31-57 59-103 62-103 11 0 164 85 164 91 0 7-227 387-310 519-60 96-225 400-331 612s-125 237-190 253c-19 5-34 0-58-21zM19635 7266c-23-16-219-214-222-224-1-4 29-27 69-52a706 706 0 0 0 322-547c0-35 4-63 8-63 7 0 245 100 310 130 39 18 53 62 52 160-2 149-56 297-151 415a589 589 0 0 1-268 179c-78 20-95 20-120 2zm149-65c16-7 25-15 20-20-11-9-127-51-143-51-13 0-15 49-1 84 9 25 10 25 52 12l72-25zm153-123c29-29 53-58 53-64 0-15-119-29-132-16-14 14 1 132 15 132 6 0 35-23 64-52zm142-226c14-39 23-73 20-76-9-10-129 17-129 29 0 22 62 126 73 122 6-2 22-35 36-75zm43-230c-3-43-8-65-18-69-18-7-84 24-84 40s93 109 100 99c3-4 4-35 2-70zM14610 7221c-80-26-138-58-145-81-5-15 12-54 58-138 68-121 106-202 184-382 76-178 110-220 175-220 30 0 158 61 180 86 16 19 15 26-40 149-93 210-282 539-338 587-18 15-23 15-74-1zm65-145c22-16 14-46-13-46-28 0-43 20-31 42s19 22 44 4zm233-488c7-7 12-17 12-24 0-19-32-26-48-10-13 12-13 18-2 30 15 19 22 20 38 4zM14763 7230c-13-5-23-11-23-14 0-4 74-120 86-134 5-7 44 10 44 19 0 20-64 139-74 138-6 0-21-4-33-9zM260 7164c-42-29-74-87-66-119 4-16 91-79 298-217 161-107 383-259 493-336l375-265c162-113 216-150 465-319l262-180c156-107 175-118 216-118 52 0 107 17 124 39 7 9 13 30 13 48 0 36-12 46-135 113-92 49-445 284-715 474l-280 196a134636 134636 0 0 0-1012 710l-38-26zm772-585c27-18 47-37 45-43s-23-15-47-20c-37-8-45-7-56 9-17 23-18 85-2 85 6 0 33-14 60-31zm184-132c26-18 49-38 51-44 2-5-17-16-43-23-43-12-48-12-60 5-15 21-19 95-5 95 5 0 30-15 57-33zm203-143c29-20 49-40 45-44-5-4-27-11-50-15-47-7-59 2-69 58-9 48 4 48 74 1zm183-126c53-36 64-68 24-68-13 0-31-3-39-6-24-9-47 24-47 67 0 21 3 39 7 39s29-15 55-32zm564-395c38-41 41-51 19-59-22-9-68 13-100 46s-26 50 17 50c22 0 39-10 64-37zM14218 7097c-134-56-131-37-37-222 45-88 107-207 139-265l95-175c37-69 118-190 133-198 4-2 51 8 105 23 141 39 151 60 87 164-60 99-81 144-169 366-64 162-90 216-126 260-73 89-108 96-227 47zm150-152c1-1-2-14-7-28-7-19-15-24-30-20-20 5-29 41-14 56 5 6 41 0 51-8zm246-531c18-7 21-35 5-51-17-17-49-3-49 21 0 34 12 42 44 30zM13940 7019l-90-36c-60-20-90-40-90-60 0-9 30-68 67-132s147-273 244-466c144-285 181-351 199-353 13-2 59 19 118 54 129 79 154 101 146 128-4 11-46 89-94 171-84 146-268 469-345 609-63 114-76 121-155 85zm79-208c9-6 11-18 7-35-7-29-23-33-50-13-15 11-17 17-7 35 12 23 27 27 50 13zm305-577c21-8 21-43 0-51-8-3-23 1-31 10-13 13-14 19-3 31 14 18 13 18 34 10z"/>
	<path d="m19295 6918-108-114-38-41 50-33a673 673 0 0 0 277-441c4-27 12-49 18-49s65 24 131 54l120 53v94a606 606 0 0 1-279 503c-87 58-91 57-171-26zM13610 6912c-104-40-162-82-178-130-11-31-7-43 42-145 29-62 98-179 153-262 132-197 188-289 254-410 61-114 87-145 123-145 14 0 61 11 105 25 67 22 84 31 96 56 15 28 14 33-14 92-17 34-58 112-92 172-53 94-138 265-235 470-40 86-185 296-203 295l-51-18zm77-257c6-19-22-46-40-39-17 6-23 35-10 48 10 10 46 3 50-9zm324-615c36-20 18-57-21-45-19 6-27 35-13 48 8 9 11 9 34-3zM3423 6865c-33-14-63-59-63-95 0-12 7-34 15-49 23-45 387-651 462-769l14-23 67 37c37 20 72 41 79 46 8 6-13 48-72 146-69 115-233 405-372 660-31 56-37 62-66 62-18-1-46-7-64-15zM14996 6801c-8-12 55-151 68-151 6 0 22 9 35 19 24 18 24 20 8 45-49 74-96 111-111 87zM13221 6736c-93-38-117-57-130-104-8-27-5-41 19-85 60-112 159-271 332-530 98-148 194-299 212-336 45-89 54-95 106-81 58 16 170 124 170 163 0 38-14 64-153 277a6709 6709 0 0 0-312 516c-103 187-121 214-143 214-9 0-55-16-101-34zm93-209c15-11 17-17 7-35-13-25-15-26-42-12-22 12-25 30-7 48 15 15 20 15 42-1zm430-670c21-15 12-47-14-47-23 0-42 24-34 44 7 19 24 21 48 3z"/>
	<path d="m19019 6689-131-47c-26-9-48-19-48-22s27-20 60-38a656 656 0 0 0 336-504c4-37 10-68 14-68s46 44 94 97c77 87 86 101 86 136 0 173-153 409-301 466-21 8-43 3-110-20zM3824 6666c-30-13-54-55-54-93 0-15 285-499 299-507 6-4 138 71 160 90 2 2-28 61-67 131l-128 238c-32 61-68 120-81 133-26 26-80 29-129 8zM18220 6614c-22-20-40-42-40-50s14-37 32-65l31-51 45 6 63 6c15 0 19 8 19 38 0 86-10 112-51 133-21 10-43 19-49 19-5 0-28-16-50-36zM18436 6619c-28-22-32-54-20-131 6-32 12-39 56-58 28-12 51-20 52-18 9 12 46 123 46 136 0 24-65 92-88 92-11 0-31-9-46-21z"/>
	<path d="M18688 6572c-27-8-48-19-48-23s21-9 47-11c46-3 48-4 75-56 31-61 31-61-34-150l-39-52 65-79a871 871 0 0 0 200-430l12-84 114 128 115 128-1 71c-2 132-67 303-152 397-70 78-233 180-284 178-13 0-44-8-70-17zm190-260c10-7 10-20 0-71-7-34-17-61-23-59-16 5-114 125-108 132 9 9 116 7 131-2zm92-193c29-6 50-16 50-24 0-10-13-52-35-114-8-21-21-5-60 77-38 79-38 79 45 61zm95-209c6-10-38-105-54-114-4-3-11 17-15 44-4 28-9 57-12 65-5 12 3 15 34 15 23 0 43-4 47-10zM4214 6540c-39-20-64-53-64-86 0-16 127-241 141-250 9-5 158 87 158 98 2 14-121 233-137 246-23 17-51 15-98-8zM13057 6516c-3-8 3-34 14-58 30-66 35-73 54-76 35-7 36 15 0 73-19 32-35 62-35 67 0 14-28 9-33-6zM4540 6503a91 91 0 0 1-60-82c1-35 19-71 36-71 14 0 164 98 164 108 0 5-10 18-23 30-23 22-80 29-117 15zM18117 6484c-22-12-27-21-26-52 1-57 21-101 56-123s34-23 57 48l17 52-26 40c-32 48-43 53-78 35z"/>
	<path d="M18637 6493c-23-4-33-15-53-56l-24-52 37-32c45-39 53-40 80-10 39 43 55 76 49 101-7 29-32 57-49 55l-40-6zM4544 6303a9997 9997 0 0 0-831-502c-53-28-83-49-83-60 0-17 71-144 97-173 9-10 21-18 28-18a6433 6433 0 0 1 770 446c160 106 299 202 309 213 18 20 18 22-14 78-46 82-80 123-100 123-9 0-88-48-176-107zm134-68c2-31-2-57-11-69-13-18-16-18-65-2-68 23-80 38-50 66 31 29 89 60 108 57 11-2 16-17 18-52zm-270-182c4-83-9-93-83-59-30 13-55 31-55 38 0 16 110 90 125 85 6-2 11-31 13-64zm-253-155c-1-78-9-84-79-58-70 27-70 42-1 88 69 45 80 40 80-30zm-271-104c8-20 8-72 0-101-5-16-14-23-32-23-29 0-112 37-112 51 0 8 118 88 131 89 4 0 10-7 13-16zM18308 6399c-31-12-64-72-74-135-14-90 45-274 126-394 186-275 480-398 537-226 24 69-14 235-80 356-101 183-281 357-411 395-56 17-61 17-98 4zM4758 6114c-43-30-78-57-78-60 0-2 7-16 16-29 31-47 106-27 161 41l30 38-19 33c-11 18-23 33-26 33-4 0-42-25-84-56zM4538 5967c-43-29-77-54-77-57s9-16 19-29c18-20 25-22 65-16 52 7 115 55 115 86 0 21-28 69-39 68-3 0-41-24-83-52zM4323 5822c-40-26-73-52-73-58 0-19 36-44 64-44 40 0 81 25 106 64 20 33 20 36 4 61-9 14-19 25-23 24-3 0-39-22-78-47zM13480 5834c-8-21-5-36 21-85 18-32 36-59 41-59 18 0 48 21 48 33 0 18-78 137-90 137-6 0-15-12-20-26zM4108 5697c-43-23-78-47-78-52 0-6 14-26 31-44 28-32 33-33 85-29 56 5 104 35 104 66 0 16-51 102-60 101-3 0-40-19-82-42zM3883 5577c-46-23-83-47-83-53 0-23 41-63 76-74 27-9 42-9 65 0 33 14 79 64 79 86 0 15-41 84-50 83-3 0-42-19-87-42zM18850 4938c-14-6-46-10-71-9-26 1-66-6-89-15l-43-17 6-61c7-78 13-93 40-100l21-5-21-23c-24-26-145-216-212-333l-46-80 1-95c0-85 5-107 43-215 57-160 61-227 19-304-28-51-30-60-24-125 4-39 12-95 19-125l12-55 35 31c19 16 46 36 58 42 23 12 24 16 17 91-8 93 3 134 45 175 37 36 37 48 0 116-40 75-59 162-66 309-5 100-3 139 11 195 31 127 142 316 207 354 16 10 31 30 38 56 7 22 18 55 26 73l13 33 28-18c25-17 60-18 458-18 476 0 468-1 512 64 27 40 26 53-8 62-41 12-1001 9-1029-3zM16565 4926c-16-7-39-23-50-35-16-19-17-25-6-43 11-17 10-27-5-59-9-22-23-39-31-39-7 0-13-9-13-20 0-12-7-56-16-98-35-169-41-236-25-270 8-18 18-32 23-32 4 0 27 14 52 31 46 33 71 33 83 2l28-55 21-37 54 40c31 23 62 39 74 37s32-24 51-54l30-52 54 39c61 44 66 43 100-26 12-25 24-45 25-45 2 0 14 9 27 21l48 40c20 16 26 36 42 146 10 71 23 187 28 258 9 128 9 130-13 153-60 61-500 135-581 98zm38-86c28 0 31-26 6-59-29-40-42-39-57 2-19 53-16 70 11 63 12-3 30-6 40-6zm186-36c6-6-52-87-65-91-14-5-48 82-39 98 7 10 93 4 104-7zm170-29c12-12 9-20-18-54-18-23-36-39-41-36-12 8-41 96-34 107 7 12 75-1 93-17zm136-23c5-4 18-7 27-7 29-2 32-12 19-56-15-49-34-46-42 7-5 38-6 38-13 12-11-39-32-54-44-31-13 25-22 79-15 87 6 6 50-2 68-12zM6258 4795c-54-8-101-16-106-19s40-126 98-274c59-147 115-292 124-320 10-29 21-52 26-52s15 21 24 48c9 26 65 170 125 320s105 275 100 278c-13 7-218 34-259 33-19-1-79-7-132-14zM3710 4791c-127-19-300-85-380-145-175-132-270-316-257-496 9-124 32-213 143-542 57-172 103-324 102-338-3-25-4-25-78-22-62 2-81-1-108-17-67-43-91-129-54-200 47-93 181-113 279-43 43 31 84 113 90 183l6 59h777v-52c1-89 48-171 120-208 82-41 162-33 219 22a149 149 0 0 1-132 254c-58-12-69-11-80 5-8 12 17 97 101 350 170 512 181 615 84 819-73 155-264 297-472 349-94 24-272 35-360 22zm110-851v-650h-120l2 642 3 643 30 6c17 4 42 7 58 8l27 1v-650zm116 640h34V3290h-110v643c0 354 3 647 7 651 4 3 13 4 21 1 7-3 29-5 48-5zm-266-650v-640h-120l2 623 3 622 50 17 58 18c4 0 7-288 7-640zm420 616 25-11 3-623 2-622h-120v633c0 349 3 637 6 640 8 8 48 0 84-17zm138-71c72-54 114-109 143-185 18-46 22-76 21-180 0-131-10-189-110-645l-38-170h-89l-3 613c-1 362 2 612 7 612s36-20 69-45zm-708-575v-610h-45c-38 0-45 3-50 23l-45 212-67 310c-22 99-27 146-27 270-1 141 1 153 25 205 14 30 39 70 54 89 37 44 123 111 141 111 12 0 14-92 14-610zM5975 4719c-65-33-128-88-151-131-38-72 8-293 110-530 31-72 32-70 66 217 41 343 51 423 55 448 6 35-4 34-80-4zM6746 4718l34-283c43-364 52-425 60-425 10 0 83 193 116 305 28 95 41 206 30 250-11 43-85 114-158 151-37 19-72 34-77 34s-8-15-5-32z"/>
	<path d="M19128 4735c-134-19-179-33-210-63-37-34-35-42 5-32 17 5 92 16 165 25 165 19 390 12 580-19 72-12 132-20 132-19 0 15-34 64-49 73-79 41-436 62-623 35zM10511 4704c-21-15-23-22-20-93 3-62 10-89 37-143 36-74 113-165 168-198 19-12 34-25 34-30 0-4-18-39-40-76a636 636 0 0 1-85-418c25-164 100-260 180-230 9 4 39 41 67 83s90 115 137 162c69 68 105 95 171 128 186 91 372 92 549 1 92-47 172-144 296-360a810 810 0 0 1 356-360c92-48 139-87 139-115 0-19 37-47 57-43 35 6 102 191 89 243-9 37-31 41-80 14-43-22-44-22-90-5-57 22-127 89-159 152-22 43-64 169-179 539-121 385-366 619-751 716-71 18-129 22-427 30-190 5-363 11-385 14-29 5-47 1-64-11zm195-75c6-5 16-28 23-51 30-98 110-188 222-248 64-34 64-31 14-95-49-63-63-89-90-170a711 711 0 0 1-16-303c9-31 7-39-28-85-21-29-48-61-60-71-20-18-22-18-41-1-63 57-85 269-42 389 29 78 86 180 129 227l34 38-28 17a573 573 0 0 0-174 136c-52 66-78 123-86 189l-6 51 69-7c38-4 74-11 80-16zm528 1c386-38 678-263 824-635 20-52 112-345 112-358 0-4-25-18-55-32l-61-27c-3-2-31 38-61 87-84 138-129 191-205 241-98 66-197 96-334 102-180 7-316-38-458-153-31-26-61-43-67-39-18 10-5 169 19 235 25 71 74 148 141 221l52 56-56 21c-168 63-255 141-290 258-6 22-5 22 112 26l173 5c30 1 100-3 154-8zM6100 4693c0-10-9-85-20-168-38-290-62-487-58-490 1-2 36 8 76 21 40 14 112 30 160 35 48 6 89 12 90 14 6 6-232 605-240 605-5 0-8-8-8-17zM6688 4694c-11-18-238-575-238-584 0-4 39-12 86-19 48-7 121-23 163-36 41-13 77-23 79-21s-6 78-18 167l-41 324c-22 179-23 183-31 169zM8830 4675a832 832 0 0 1-658-577 786 786 0 0 1 50-603 842 842 0 0 1 553-440c77-19 239-25 322-12 52 9 53 8 64-20 7-15 13-59 13-98 1-65 3-70 24-73 31-5 79 15 87 36 3 10-7 28-29 51-29 29-74 119-64 126l65 25c35 12 83 35 108 51l45 28 24-32c36-49 46-73 46-112 0-42 17-53 61-35 33 14 54 44 45 65-3 8-22 23-44 34-21 11-50 38-65 60l-27 40 90 89 90 90 46-35c25-20 52-51 60-70 8-18 21-36 30-40 36-14 95 88 63 108-8 5-30 9-50 9-26 0-49 10-82 35l-47 36 25 39c14 22 37 69 51 105s29 65 33 65c35 0 110-35 141-65l37-36 22 27c23 30 28 86 8 102-8 7-25 7-53 0-31-9-52-8-88 2-26 7-49 17-52 22s0 49 7 98c25 173-23 371-127 533a829 829 0 0 1-574 373 619 619 0 0 1-250-1zm315-267a575 575 0 0 0 360-354c29-84 46-252 24-238-8 5-142 141-298 302s-287 295-292 298c-52 32 103 26 206-8zm43-326 340-347-18-55c-21-67-41-110-50-110-7 0-790 788-790 795a1538 1538 0 0 0 171 64c4 1 160-155 347-347zm-159-164 402-407-62-62-61-61-404 403a9949 9949 0 0 0-404 416c0 15 110 125 120 121 3-2 188-186 409-410zm-172-160c216-216 393-396 393-399 0-8-64-35-126-54l-41-13-343 343c-338 339-343 343-336 377 8 41 46 138 55 138 3 0 183-177 398-392zm-165-165c164-164 298-302 298-307s-33-6-77-2a572 572 0 0 0-527 606c5 0 143-134 306-297zM19023 4610c-67-10-131-24-143-30-24-13-23-19 28-165l34-100-7-134c-6-120-5-133 10-127 10 4 32-9 61-36l46-42 31 37c48 55 76 57 129 9l43-40 44 34c49 38 63 41 81 19 7-9 26-25 42-36l29-21 39 36c48 43 74 45 112 9l28-27 33 32c22 22 39 30 50 26 15-6 17 7 17 124 0 125 2 136 40 253 22 68 40 126 40 130 0 26-238 59-470 64-158 3-218 1-317-15zm254-36c7-20-34-107-47-99-19 12-71 95-65 105 3 6 29 10 56 10 36 0 51-4 56-16zm222 7c11-7 10-15-9-45-35-57-49-69-67-55-21 18-55 88-48 99 8 12 105 13 124 1zm169-28c2-12-6-40-18-64-18-34-24-39-34-28-17 19-39 97-31 110 4 5 23 9 43 7 29-2 38-8 40-25zm-599 8c19-12 2-85-21-89-17-3-71 75-62 90 7 11 65 10 83-1zm-119-57c0-48-12-56-34-21-28 44-29 65-4 69 34 6 38 1 38-48zm830 41c0-28-30-89-39-79-5 5-11 28-14 52-5 41-4 42 24 42 19 0 29-5 29-15zM13535 4440l-390-5-7-295c-5-162-7-416-5-564l2-269 25-19c25-18 32-18 335 2 328 21 793 51 1190 75 288 18 297 20 321 46 18 20 19 41 16 448l-2 506v80h-547c-302 0-723-2-938-5zm-215-95c0-68-2-75-20-75-15 0-20-7-21-27l-2-113-2-85h-80l-3 175c-1 96 0 180 2 187 4 9 26 13 66 13h60v-75zm170 0c0-68-2-75-20-75s-20-8-22-112l-3-113h-70l-1 110c-2 92-5 111-18 113-13 3-16 17-16 71 0 37 3 71 7 74 3 4 37 7 75 7h68v-75zm168-2c2-60 0-73-12-73-13 0-16-20-18-112l-3-113h-70l-3 113c-2 90-5 112-17 112s-15 16-15 75v76l68-3 67-3 3-72zm150-110 2-183h-80v220h-25c-24 0-25 2-25 68 0 38 3 72 7 76s32 6 63 4l55-3 3-182zm149 176c20-17 18-139-2-139-12 0-15-19-15-110v-110h-110v178c0 98 2 181 5 184 11 10 108 8 122-3zm169-4c3-6 1-88-3-181l-8-169-37-3-38-3v220l-27 3c-27 3-28 4-26 62 1 33 5 66 7 73 7 17 126 16 132-2zm152-172 2-183h-70v220h-25c-24 0-25 2-25 68 0 38 3 71 6 74s29 5 57 4l52-1 3-182zm146 181c12-5 16-21 16-75 0-39-4-69-10-69s-10-43-10-110v-110h-110v178c0 98 3 182 7 185 8 9 86 9 107 1zm174-2c10-7 11-46 6-185l-7-177h-77v220h-60v68c0 38 3 72 7 75 9 10 115 8 131-1zm185-127c-2-71-5-154-9-182-5-52-6-53-40-53h-34v220h-70v59c0 91 1 92 84 89l71-3-2-130zm188 70c4-33 7-115 8-183l1-123-52 3-53 3-1 105-1 105-26 3c-26 3-27 5-27 71 0 37 3 70 6 73s35 5 72 4l67-1 6-60zm-1063-447c15-26 15-27-53-103l-69-77 24-46c14-26 42-73 63-105 20-32 37-62 37-66 0-14-51-44-60-34-18 19-100 147-126 197l-28 54 27 39c41 59 148 174 159 171 5-2 17-15 26-30zm378-21c23-29 66-89 94-135l53-82-63-68a561 561 0 0 0-134-122c-12 0-35 32-36 50 0 8 30 45 67 82 64 64 66 67 54 96-7 16-39 62-71 103l-58 73 19 28c11 15 23 28 27 28 4-1 26-24 48-53zm-183-37c31-24 117-145 117-164 0-7-36-47-80-90-76-71-82-75-104-64-22 12-71 69-125 145-14 21-20 40-16 53 9 27 141 140 164 140 10 0 30-9 44-20zM736 4391c-25-27-12-47 100-161l93-95-35-70a432 432 0 0 1 71-504 433 433 0 0 1 519-86l70 35 101-100c63-62 110-100 123-100 24 0 52 25 52 47 0 9-47 64-104 122l-104 106 24 35c49 71 67 137 67 245 0 79-4 112-22 157a459 459 0 0 1-248 249 471 471 0 0 1-437-61c-2 0-48 45-103 100-106 106-133 119-167 81zm644-201c92-25 186-116 221-217a350 350 0 0 0-48-313c-9 0-473 470-473 480 0 11 94 50 143 60 44 9 98 6 157-10zm-135-370 239-239-59-28c-79-36-203-39-278-5a404 404 0 0 0-174 171c-23 47-27 69-27 141-1 71 4 94 26 143 15 31 28 57 30 57s111-108 243-240zM16495 4300c-44-45-59-49-77-20-21 34-28 23-28-45v-64l38-9c20-5 71-15 112-22l110-20c19-5 73-13 120-20a6332 6332 0 0 0 259-43c16-2 69 138 57 150-3 4-19-6-34-20-16-15-34-27-40-27-7 0-26 22-43 50l-30 50-39-20c-21-11-41-24-45-30-16-25-44-8-74 45-17 30-34 55-37 55s-32-21-65-46c-69-53-75-51-115 28-13 26-26 48-27 48-2 0-21-18-42-40zm-15-111c0-22-13-31-34-23-19 7-21 50-3 57 17 6 37-12 37-34zm154 5c20-8 20-28 0-44-12-11-18-10-31 3-9 8-13 23-10 31 7 17 16 19 41 10zm214-33c21-13 10-46-16-49-24-4-38 18-28 43 6 17 24 19 44 6zm170-40c18-11 11-45-10-49-17-3-34 30-23 48 7 12 16 12 33 1zM16380 4091c0-21 56-35 315-76 88-14 197-32 243-41 88-18 107-13 100 22-4 21-11 23-374 78-270 42-284 43-284 17zM6235 4029c-69-10-194-46-212-61-7-6-13-26-13-45 0-30 3-34 18-28 111 47 224 75 303 75 38 0 39 1 39 35s-1 35-37 34c-21-1-65-5-98-10zM6430 4006c0-35 1-36 39-36 79 0 192-28 304-75 14-6 17-2 17 29 0 34-4 38-42 55-56 24-166 48-250 56l-68 7v-36zM16441 3935c37-96 54-129 97-188 26-36 32-51 23-60-6-6-11-21-11-32 0-20 9-23 93-37 105-17 120-12 112 36-5 29 0 36 78 103 77 66 146 147 135 158-5 6-422 79-505 89l-51 6 29-75z"/>
	<path d="M19095 3970c-21-22-44-40-50-40s-30 16-52 35c-23 19-44 35-47 35-11 0-6-33 16-112l23-78h693l20 63c32 98 34 113 16 128-13 11-19 8-41-19-30-40-42-40-78-2-16 17-33 30-38 30s-27-16-50-35c-50-43-67-44-110-5-19 17-39 30-45 30s-29-16-52-35c-46-39-55-38-104 14-17 17-37 31-46 31s-34-18-55-40zm170-86c21-22 14-38-18-42-31-4-46 20-27 43 16 19 25 19 45-1zm-207-6c17-17 15-45-4-52-20-8-44 10-44 34 0 31 26 40 48 18zm417-13c0-22-31-33-47-17-17 17-1 44 24 40 15-2 23-10 23-23zm189 8c5-11 0-22-11-31-15-11-20-10-30 4-6 9-9 22-6 30 7 20 40 17 47-3zM5947 3934c-11-11-8-52 4-59 17-11 21 0 12 35-5 17-12 28-16 24zM6837 3897c-5-36-3-42 12-32 13 8 15 52 2 59-5 3-11-9-14-27zM6290 3913c-55-6-169-32-208-49-54-22-61-31-52-62 25-86 111-369 116-382 5-14 204 461 204 488 0 6-6 11-12 10l-48-5zM6450 3907c0-19 192-487 200-487 4 0 15 28 24 63 9 34 37 125 60 202 24 77 42 144 39 149-16 25-158 66-275 80-34 4-48 2-48-7zM18350 3849c-28-22-54-48-57-56-7-18 50-75 100-102 24-13 29-12 46 3 10 9 29 37 42 61l24 44-35 36c-57 59-62 60-120 14zM6292 3628c-56-138-101-252-99-254 1-1 48 3 105 8 70 8 134 8 205 0 56-5 103-9 104-8 5 4-197 501-205 504-4 1-54-111-110-250zM5963 3773l-43-113a1784 1784 0 0 1-125-449c2-1 21 11 42 27 62 50 138 83 270 118 8 2 6 19-7 61l-64 202c-25 80-46 151-46 158 0 19-20 16-27-4zM6752 3579c-35-116-61-213-58-216s44-18 91-34c80-27 184-83 199-108 32-51 14 71-33 234-34 116-116 328-128 332-4 2-36-92-71-208zM18992 3753c3-17 28-18 336-21 327-2 332-2 332 18s-6 20-336 20c-314 0-335-1-332-17zM19085 3680c4-6 40-33 81-61 59-39 73-53 64-64-8-10-6-17 6-30 12-11 14-21 8-30-46-63-45-53-13-145 35-97 43-110 74-110 19 0 29 14 59 86 40 94 43 119 21 144-12 13-12 21-1 53 10 29 23 43 63 63 28 15 70 44 94 65l44 38-253 1c-169 0-251-3-247-10zM16515 3561c-3-16-1-59 6-97 20-117 2-270-55-465-11-39-14-67-8-94 8-42 15-46 104-59l46-7 22 46c19 40 24 71 31 213 8 172 10 187 60 335 29 85 31 127 6 127l-92 15c-109 20-112 20-120-14zM18625 3417c-98-72-105-79-105-107 0-78 232-282 386-339 79-30 110-28 117 7l20 89 15 63-79 47c-44 26-134 96-200 155-67 59-122 108-123 107l-31-22zM6210 3303c-252-40-390-107-390-191 0-55 56-102 161-135 130-41 218-51 419-51s289 10 419 51c104 33 161 80 161 134 0 79-132 150-345 184-82 14-358 19-425 8zM19430 3169c-45-14-79-18-113-14-42 5-52 2-78-20-17-14-43-25-59-25-75 0-86-8-100-68l-17-69c-4-10 10-13 49-13 54 0 55 0 122-70 38-38 74-70 80-70 14 0 101 98 121 136 9 17 10 35 5 54-8 26-4 31 50 69 69 49 122 54 200 20 27-12 57-18 66-15 15 6 15 8-1 26-10 11-43 32-74 47-74 35-163 39-251 12zm-91-124c17-20 31-39 31-42 0-15-54-83-66-83s-74 71-74 86c0 10 61 74 71 74 4 0 21-16 38-35zM16470 2814c0-17 42-94 51-94 15 0 79 54 79 66 0 6-19 14-42 18-24 3-53 9-65 12-13 3-23 3-23-2zM3736 2146c-17-14-37-44-47-68-15-40-21-45-79-65-35-12-85-33-112-47l-48-25-56 20c-85 28-109 25-166-22-66-56-80-85-67-135 6-22 14-43 19-49 21-29 18-62-14-129-19-39-37-86-41-103-6-28-17-38-78-70l-72-38v-210l66-32c63-30 67-34 79-80 18-62 57-153 77-175 14-16 13-21-11-62-14-24-26-55-26-68 0-30 95-146 126-154 27-7 65 1 111 23 31 14 35 14 70-7 21-13 72-35 113-50l75-28 18-58c19-65 54-104 92-104 13 0 27-4 30-10 3-5 32-10 63-10 82 0 119 32 136 115l12 60 64 22c36 12 90 36 121 52l56 29 43-24c67-38 86-33 161 44 37 37 69 74 72 83 3 8-6 38-19 65s-24 54-24 60 13 38 30 70c16 32 37 83 45 112 15 51 18 54 83 85l67 32 3 94c3 113-5 129-82 161-52 21-57 26-70 69-19 63-52 138-76 170-19 28-19 28 5 62 14 19 27 49 31 66 6 31 1 38-69 108-85 86-99 89-178 50l-50-26-62 29c-34 16-83 34-108 41-41 11-49 18-68 61-25 56-65 77-159 86-50 4-61 2-86-20zm223-267c162-37 329-205 403-405 28-73 29-190 4-284a818 818 0 0 0-172-290 617 617 0 0 0-242-119c-29-6-104-11-166-11-109 0-116 1-183 35a550 550 0 0 0-227 211 670 670 0 0 0-84 306c-5 119 13 195 67 280 41 64 148 175 196 204 114 66 292 99 404 73zM8927 2146c-28-23-29-26-34-150-4-74-10-129-17-134-6-5-58-22-116-38-81-22-113-36-142-62l-37-34-55 13c-30 6-75 25-98 41l-43 28-17-21c-17-20-16-22 37-71 30-27 55-55 55-62 0-6-18-46-41-89-30-57-45-77-56-73-17 7-243 10-246 4l-46-50-43-46 34-37 34-38 141 2c78 1 143-2 146-6s2-64-1-132c-5-122-5-124-32-139-20-12-35-35-51-81l-27-71c-1-4 19-17 46-29l49-23 83 42 83 42 61-60c56-54 153-122 175-122 13 0 21-26 21-68 0-51 39-275 49-285 5-5 17-7 27-5 14 2 28 38 63 161l46 157h39c50 0 141 54 218 128 53 51 59 54 75 40 24-20 172-108 182-108 5 0 21 24 36 53l28 53-42 57c-23 31-53 64-67 73-23 15-23 18-10 39 8 12 33 64 55 116l40 94 68 8c118 13 268 38 275 45 3 4 9 23 13 42l6 36-100 37c-85 31-113 37-181 37h-80l-64 98a818 818 0 0 1-300 273c-135 80-123 64-131 189-7 102-10 112-33 130-31 25-40 25-75-4zm157-457c72-17 136-35 142-40s48-63 92-128c80-116 81-119 83-183 2-62-1-71-49-154-44-76-67-103-166-191l-115-102-68-6-103-10c-31-4-51 5-143 63-102 64-109 71-160 153l-54 86-6 130-7 129 48 70c26 38 61 75 77 84 128 63 272 129 284 129 7 1 73-13 145-30z"/>
	<path d="M8783 1398c-60-52-62-54-62-103 0-44 4-55 39-94 36-39 47-45 127-63l88-19 66 32 66 32 7 60c11 111 9 125-31 167l-36 40h-202l-62-52zM1125 2011c-20-19-387-64-532-66h-43l39-120c44-139 95-262 118-287 22-24 59-23 141 7 38 14 76 25 83 25 8 0 28-28 44-63 24-50 35-63 56-65 15-2 31 4 39 13 11 13 9 25-15 74-15 32-26 64-24 70s47 35 99 64c55 31 101 65 109 79 14 24 13 32-12 94-38 97-91 186-102 175zM1564 1889c-104-73-274-210-284-229-19-36-10-69 42-146l52-77-57-51c-61-54-68-73-38-100 18-16 22-15 84 34l66 50 83-75c85-78 116-94 148-79 24 12 345 305 388 355 24 28 29 39 18 39-9 0-73 33-143 73-127 73-294 210-285 235 7 21-13 13-74-29zM9465 1839c-33-16-70-40-82-52-22-22-22-23-5-57 16-33 20-35 66-35 48 0 51 2 84 48 32 45 33 49 22 80-7 17-16 35-19 39-3 3-33-7-66-23zM1330 1154c-23-37-85-73-126-74-12 0-42 11-68 25s-50 25-53 25-3-51 0-112c17-290 85-623 127-623 50 0 200 777 153 792-6 2-21-13-33-33zM5400 792c-1-39 97-187 188-284 175-187 471-335 677-341 72-2 91 9 81 46-7 30-11 31-152 62a999 999 0 0 0-476 231c-62 55-151 158-210 245l-38 54v-80l-35 40c-19 22-34 34-35 27zM8207 786c-7-19 18-40 39-32 8 3 14 14 12 23-4 22-43 29-51 9z"/>
</g>
</svg>