<svg xmlns="http://www.w3.org/2000/svg" width="1024" height="256" viewBox="0 0 1024 256">
	<desc>sky instr sprite</desc>
	<defs>
		<filter id="sh" x="-20%" width="140%" y="-20%" height="140%"><feDropShadow dx="0" dy="0" stdDeviation="2" flood-color="#f00"/></filter>
	</defs>
	<style>
		path,text{fill:#0000;stroke:#fea;stroke-width:3;filter:url(#sh);font-family:sans-serif;font-size:80px;stroke-linecap:round;stroke-linejoin:round;}
	</style>
	<g><!--keys-->
		<path d="M0,0m64,9l55,55l-55,55l-55,-55zm39,55a39,39,0,1,0,0,.0001z"/>
		<path d="M128,0m64,15l49,49l-49,49l-49,-49z"/>
		<path d="M256,0m64,25a39,39,0,1,0,.0001,0z"/>
	</g>
	<g><!--uiBtn-->
		<path d="M384,0m33,64l24,28l38,-56" style="stroke-width:9;"/>
		<path d="M512,0m39,39l50,50m0,-50l-50,50" style="stroke-width:9;"/>
		<path d="M640,0m21,64h86m-43,-43v86" style="stroke-width:9;"/>
		<path d="M768,0m21,64h86" style="stroke-width:9;"/>
	</g>
	<g><!--echo-->
		<path d="M896,0m18,25a46,46,0,0,1,0,78m32,-78a46,46,0,0,1,0,78m32,-78a46,46,0,0,1,0,78m32,-78"/>
		<path d="M896,0m46,25a46,46,0,0,0,0,78m32,-78a46,46,0,0,0,0,78m32,-78a46,46,0,0,0,0,78m32,-78" stroke-dasharray="8.6"/>
	</g>
	<path d="M0,128m64,26a38,38,0,1,0,.001,0z"/><path d="M0,128m64,45a19,19,0,1,0,.001,0z" style="fill:#fea"/>
	<text x="196" y="196" text-anchor="middle" dominant-baseline="central" style="fill:#fea">?</text>
</svg>
