<svg xmlns="http://www.w3.org/2000/svg" width="1024" height="512" viewBox="0 0 1024 512">
	<desc>sky seq sprite</desc>
	<style>
		g>path,g>text{fill:#0000;stroke:#fea;stroke-width:3;filter:url(#sh);font-family:sans-serif;font-size:80px;stroke-linecap:round;stroke-linejoin:round;}
	</style>
	<defs>
		<filter id="sh" x="-20%" width="140%" y="-20%" height="140%"><feDropShadow dx="0" dy="0" stdDeviation="2" flood-color="#f00"/></filter>
	</defs>
	<g><!--keys-->
		<path d="M0,0m64,9l55,55l-55,55l-55,-55zm39,55a39,39,0,1,0,0,.0001z"/>
		<path d="M128,0m64,15l49,49l-49,49l-49,-49z"/>
		<path d="M256,0m64,25a39,39,0,1,0,.0001,0z"/>
	</g>
	<g><!--play/pause stop forward-->
		<path d="M384,0m16,32v64l48,-32zm48,0v64h16v-64zm32,0v64h16v-64z"/>
		<path d="M512,0m32,32v64h64v-64z"/>
		<path d="M640,0m16,32v64h8v-64zm16,0v64h8v-64zm16,0v64l64,-32z"/>
	</g>
	<g><!--undo note-->
		<path d="M768,0m41.37,41.37m0,45.26a32,32,0,1,0,0,-45.26l-4,4m0,-16v16h16"/>
		<text x="920" y="96">♫</text>
	</g>
	<g><!--cut copy paste cursor-->
		<path d="M0,128m64,64m18,9a18,12,26.6,1,0,0.01,0l-66,-33a48,24,0,0,1,0,48l66,-33a18,12,-26.6,1,1,0.01,0"/>
		<path d="M128,128m37,33h32l16,16v52l-48,0z"/><path d="M128,128m43,27h48v68" stroke-dasharray="7"/>
		<path d="M256,128m38,34h32l16,16v52l-48,0z M256,128m42,26h15v-6h24v6h15v74"/>
		<!--<path d="M384,128m48,32v52l12,-11l11,25l9,-4l-11,-25h17z"/>-->
		<path d="M384,128m32,32v64h64v-64z" stroke-dasharray="8"/>
	</g>
	<g><!--uiBtn style="stroke-width:9;"-->
		<path d="M512,128m33,64l24,28l38,-56"/>
		<path d="M640,128m39,39l50,50m0,-50l-50,50"/>
		<path d="M768,128m21,64h86m-43,-43v86"/>
		<path d="M896,128m21,64h86"/>
	</g>
	<g><!--file new del dup-->
		<path d="M0,256m36,24h36l20,20v60h-56z"/>
		<path d="M128,256m36,24h36l20,20v60h-56z M128,256m48,64h32m-16,-16v32"/>
		<path d="M256,256m36,24h36l20,20v60h-56z M256,256m48,48l32,32m-32,0l32,-32"/>
		<path d="M384,256m42,18h36l20,20v60h-56z M384,256m30,30h36l20,20v60h-56z"/>
		<path d="M512,256m36,80v-56h36l20,20v36m0,12v12h-56v-12 M512,256m35,86h58 M512,256m74,50v28m-3,0h6m0,-28h-6"/>
		<path d="M640,256m56,24h-20v80h56v-60l-20,-20h-8v52l-16,-18m32,0l-16,18"/>
		<path d="M768,256m36,24h36l20,20v60h-56v-28m0,-24v-28 M768,256m32,64h48l-18,-16m0,32l18,-16"/>
		<path d="M896,256m36,24h36l20,20v8m0,24v28h-56v-80 M896,256m48,64h48l-18,-16m0,32l18,-16"/>
	</g>
	<g><!--mode sc bpm arp-->
		<path d="M0,384m55.7,26.4h14.6v27.9l27.2,-9.6l5,14l-27.3,8.8l16.9,23.5l-12.3,8.9l-16.4,-24.4l-16.5,24.4l-12.8,-8.9l17.2,-23.5l-27.5,-8.9l5,-13.8l27,9.7z"/>
		<text x="144" y="488" style="font-size:60px;opacity:.6;">♭</text><text x="176" y="456" style="font-size:60px;opacity:.6;">♯</text>
		<text x="258" y="476" style="opacity:.6;">♩</text><text x="314" y="476" style="opacity:.6;">=</text>
		<path d="M384,384m32,16q8,6,0,12t0,12t0,12t0,12t0,12t0,12t0,12t0,12l6.4,4.8q-8,-6,0,-12t0,-12t0,-12t0,-12t0,-12t0,-12t0,-12t0,-12z" style="opacity:.6;"/>
	</g>
	<rect x="512" y="384" width="128" height="128" fill="#1D9BF0"/>
	<path fill="#fff" d="M512,384m 49.152 96.512 c 30.176 0 46.688 -25.024 46.688 -46.688 c 0 -0.704 0 -1.408 -0.032 -2.112 c 3.2 -2.304 5.984 -5.216 8.192 -8.512 c -2.944 1.312 -6.112 2.176 -9.44 2.592 c 3.392 -2.016 5.984 -5.248 7.232 -9.088 c -3.168 1.888 -6.688 3.232 -10.432 3.968 c -3.008 -3.2 -7.264 -5.184 -11.968 -5.184 c -9.056 0 -16.416 7.36 -16.416 16.416 c 0 1.28 0.16 2.528 0.416 3.744 c -13.632 -0.672 -25.728 -7.232 -33.824 -17.152 c -1.408 2.432 -2.208 5.248 -2.208 8.256 c 0 5.696 2.912 10.72 7.296 13.664 c -2.688 -0.096 -5.216 -0.832 -7.424 -2.048 c 0 0.064 0 0.128 0 0.224 c 0 7.936 5.664 14.592 13.152 16.096 c -1.376 0.384 -2.816 0.576 -4.32 0.576 c -1.056 0 -2.08 -0.096 -3.072 -0.288 c 2.08 6.528 8.16 11.264 15.328 11.392 c -5.632 4.416 -12.704 7.04 -20.384 7.04 c -1.312 0 -2.624 -0.064 -3.904 -0.224 C 543.264 477.792 551.904 480.512 561.152 480.512"/>
	<g><!--bs add-->
		<path d="M640,384m44,32h64v64h-64l-24,-32zm16,16l32,32m0,-32l-32,32"/>
		<path d="M768,384m21,21h86v86h-86zm43,15v56m-28,-28h56"/>
	</g>
</svg>
